<svg width="64" height="63" viewBox="0 0 64 63" fill="none" xmlns="http://www.w3.org/2000/svg">
<path fill-rule="evenodd" clip-rule="evenodd" d="M32 5.72727C17.7661 5.72727 6.22727 17.2661 6.22727 31.5C6.22727 45.7339 17.7661 57.2727 32 57.2727C46.2339 57.2727 57.7727 45.7339 57.7727 31.5C57.7727 17.2661 46.2339 5.72727 32 5.72727ZM0.5 31.5C0.5 14.103 14.603 0 32 0C49.397 0 63.5 14.103 63.5 31.5C63.5 48.897 49.397 63 32 63C14.603 63 0.5 48.897 0.5 31.5Z" fill="#FF3B19"/>
<path fill-rule="evenodd" clip-rule="evenodd" d="M42.6158 20.8842C43.7341 22.0025 43.7341 23.8157 42.6158 24.934L25.4339 42.1158C24.3156 43.2341 22.5025 43.2341 21.3841 42.1158C20.2658 40.9975 20.2658 39.1843 21.3841 38.066L38.566 20.8842C39.6843 19.7659 41.4974 19.7659 42.6158 20.8842Z" fill="#FF3B19"/>
<path fill-rule="evenodd" clip-rule="evenodd" d="M21.3841 20.8842C22.5025 19.7659 24.3156 19.7659 25.4339 20.8842L42.6158 38.066C43.7341 39.1843 43.7341 40.9975 42.6158 42.1158C41.4974 43.2341 39.6843 43.2341 38.566 42.1158L21.3841 24.934C20.2658 23.8157 20.2658 22.0025 21.3841 20.8842Z" fill="#FF3B19"/>
</svg>
