<svg width="64" height="63" viewBox="0 0 64 63" fill="none" xmlns="http://www.w3.org/2000/svg">
<path fill-rule="evenodd" clip-rule="evenodd" d="M32 5.72727C17.7661 5.72727 6.22727 17.2661 6.22727 31.5C6.22727 45.7339 17.7661 57.2727 32 57.2727C46.2339 57.2727 57.7727 45.7339 57.7727 31.5C57.7727 17.2661 46.2339 5.72727 32 5.72727ZM0.5 31.5C0.5 14.103 14.603 0 32 0C49.397 0 63.5 14.103 63.5 31.5C63.5 48.897 49.397 63 32 63C14.603 63 0.5 48.897 0.5 31.5Z" fill="#8F62FF"/>
<path fill-rule="evenodd" clip-rule="evenodd" d="M32 28.6364C33.5815 28.6364 34.8636 29.9185 34.8636 31.5V42.9545C34.8636 44.5361 33.5815 45.8182 32 45.8182C30.4184 45.8182 29.1364 44.5361 29.1364 42.9545V31.5C29.1364 29.9185 30.4184 28.6364 32 28.6364Z" fill="#8F62FF"/>
<path fill-rule="evenodd" clip-rule="evenodd" d="M29.1364 20.0455C29.1364 18.4639 30.4184 17.1818 32 17.1818H32.0286C33.6102 17.1818 34.8923 18.4639 34.8923 20.0455C34.8923 21.627 33.6102 22.9091 32.0286 22.9091H32C30.4184 22.9091 29.1364 21.627 29.1364 20.0455Z" fill="#8F62FF"/>
</svg>
