<svg width="64" height="63" viewBox="0 0 64 63" fill="none" xmlns="http://www.w3.org/2000/svg">
<path fill-rule="evenodd" clip-rule="evenodd" d="M42.4895 7.95848C37.413 5.6965 31.7412 5.13613 26.3202 6.36095C20.8991 7.58576 16.0192 10.5301 12.4083 14.7549C8.79735 18.9797 6.64882 24.2586 6.28314 29.8042C5.91746 35.3499 7.35423 40.8652 10.3792 45.5275C13.4041 50.1899 17.8551 53.7496 23.0684 55.6756C28.2817 57.6016 33.9779 57.7909 39.3075 56.2151C44.6371 54.6393 49.3145 51.3829 52.6422 46.9315C55.9699 42.4802 57.7695 37.0724 57.7727 31.5147V28.8818C57.7727 27.3003 59.0548 26.0182 60.6364 26.0182C62.2179 26.0182 63.5 27.3003 63.5 28.8818V31.5164C63.4961 38.3091 61.2966 44.9202 57.2294 50.3608C53.1622 55.8013 47.4453 59.7813 40.9314 61.7073C34.4174 63.6333 27.4554 63.402 21.0836 61.0479C14.7118 58.6939 9.27166 54.3432 5.57452 48.6448C1.87739 42.9463 0.121342 36.2054 0.568282 29.4274C1.01522 22.6494 3.6412 16.1975 8.05458 11.0338C12.468 5.87016 18.4323 2.27148 25.058 0.77449C31.6837 -0.722504 38.6158 -0.0376088 44.8205 2.72703C46.2651 3.37072 46.9144 5.06363 46.2707 6.50826C45.627 7.95288 43.9341 8.60217 42.4895 7.95848Z" fill="#1BE36B"/>
<path fill-rule="evenodd" clip-rule="evenodd" d="M62.6603 6.58141C63.7791 7.69917 63.78 9.51232 62.6623 10.6312L34.0259 39.2962C33.489 39.8337 32.7605 40.1358 32.0007 40.1359C31.241 40.1361 30.5123 39.8344 29.9751 39.2972L21.3842 30.7063C20.2659 29.588 20.2659 27.7748 21.3842 26.6565C22.5025 25.5382 24.3157 25.5382 25.434 26.6565L31.999 33.2215L58.6105 6.58343C59.7282 5.46456 61.5414 5.46365 62.6603 6.58141Z" fill="#1BE36B"/>
</svg>
