<svg width="63" height="63" viewBox="0 0 63 63" fill="none" xmlns="http://www.w3.org/2000/svg">
<path fill-rule="evenodd" clip-rule="evenodd" d="M31.5 5.72727C17.2661 5.72727 5.72727 17.2661 5.72727 31.5C5.72727 45.7339 17.2661 57.2727 31.5 57.2727C45.7339 57.2727 57.2727 45.7339 57.2727 31.5C57.2727 17.2661 45.7339 5.72727 31.5 5.72727ZM0 31.5C0 14.103 14.103 0 31.5 0C48.897 0 63 14.103 63 31.5C63 48.897 48.897 63 31.5 63C14.103 63 0 48.897 0 31.5Z" fill="#FFA900"/>
<path fill-rule="evenodd" clip-rule="evenodd" d="M31.5 17.1818C33.0815 17.1818 34.3636 18.4639 34.3636 20.0455V31.5C34.3636 33.0815 33.0815 34.3636 31.5 34.3636C29.9184 34.3636 28.6364 33.0815 28.6364 31.5V20.0455C28.6364 18.4639 29.9184 17.1818 31.5 17.1818Z" fill="#FFA900"/>
<path fill-rule="evenodd" clip-rule="evenodd" d="M28.6364 42.9545C28.6364 41.373 29.9184 40.0909 31.5 40.0909H31.5286C33.1102 40.0909 34.3923 41.373 34.3923 42.9545C34.3923 44.5361 33.1102 45.8182 31.5286 45.8182H31.5C29.9184 45.8182 28.6364 44.5361 28.6364 42.9545Z" fill="#FFA900"/>
</svg>
