<svg width="267" height="260" viewBox="0 0 267 260" fill="none" xmlns="http://www.w3.org/2000/svg">
<rect width="267" height="260" fill="#232323"/>
<path d="M69.3824 68.1705C69.4304 70.1287 68.4924 71.2769 66.581 71.4757C66.2223 71.5134 65.8281 71.2106 65.1277 70.9399C66.5673 70.1573 68.2982 70.1561 68.008 67.9443C66.8221 69.6477 65.6167 68.8925 64.5439 68.1682C62.8313 67.0108 61.2033 65.7267 59.5501 64.4814C59.1754 64.1992 58.8452 63.8564 58.2808 63.3514C58.5607 65.7038 59.7695 67.2976 60.9645 68.8754C62.1138 70.3938 63.2872 71.9018 64.5554 73.3208C65.3597 74.2211 64.7256 74.8221 64.2229 75.2928C63.6619 75.8172 62.9547 75.9097 62.3892 75.0403C61.8237 74.1731 61.1393 73.3768 60.4549 72.5953C59.6632 71.6893 59.0291 70.7742 59.3056 69.4638C59.3627 69.1907 59.1731 68.7543 58.9526 68.5509C57.04 66.7926 56.2072 64.5613 55.8416 62.0479C55.5948 60.349 55.1207 58.6832 54.49 56.9832C54.2878 59.7617 54.0844 62.5403 53.8822 65.3188C52.0645 60.245 52.3478 55.0786 52.694 49.7649C52.3878 50.1259 52.0565 50.4687 51.78 50.8503C49.9749 53.3455 48.7947 56.1286 48.3994 59.1688C48.0224 62.0764 48.9306 64.7316 51.3756 66.3676C54.2718 68.3053 56.1146 71.1215 58.3162 73.6499C58.996 74.4313 59.6255 75.2562 60.2779 76.0617C60.2333 76.1896 60.1899 76.3164 60.1453 76.4444C59.6758 76.3142 59.0874 76.3199 58.7549 76.0308C57.0606 74.557 55.4943 72.9312 53.7657 71.5008C51.4395 69.5734 49.4013 67.4393 48.0646 64.6699C47.0707 66.2248 47.3666 70.6028 49.078 72.5896C51.1014 74.9374 53.6868 75.6458 56.871 75.4162C53.143 76.938 49.4939 74.6221 47.8704 72.1989C47.8224 72.1281 47.7984 72.0412 47.7539 71.967C45.2084 67.7649 45.213 67.766 46.3726 62.1781C46.6971 60.6152 46.9827 59.0454 47.2992 57.4128C46.3646 57.0826 45.6677 57.1431 45.0999 58.0651C44.4304 59.1539 43.6375 60.1662 42.88 61.2367C41.4587 58.1931 43.7094 56.2417 44.6748 53.7831C43.2033 54.7588 41.7306 55.7344 40.0409 56.8541C40.0409 56.1126 39.9187 55.4991 40.066 54.9587C40.4065 53.7099 40.8989 52.5023 41.2828 51.265C41.405 50.8708 41.4862 50.4104 41.405 50.0186C41.2577 49.3079 41.3125 48.7732 41.9751 48.3322C42.1956 48.186 42.3362 47.7701 42.343 47.4742C42.3773 45.9261 42.311 44.3746 42.3682 42.8277C42.4241 41.3048 44.067 39.5488 45.5637 39.166C46.1647 39.0129 46.6913 38.5902 47.2832 38.3754C48.5285 37.9218 49.7715 37.4226 51.058 37.1244C53.223 36.6228 55.3994 36.5143 57.5907 37.1781C59.742 37.8304 61.1484 39.1717 62.0259 41.2156C62.3115 41.8817 62.8142 42.5467 63.3912 42.9808C65.3939 44.4877 67.4961 45.861 69.5001 47.3657C69.8714 47.6445 70.1456 48.2945 70.1467 48.7732C70.1479 49.6735 70.6208 50.0117 71.3063 50.4264C73.6713 51.8545 76.0191 53.3215 78.279 54.9073C78.7428 55.2329 79.0067 56.1377 78.9999 56.7718C78.9885 57.8218 78.744 58.8831 78.4892 59.9125C78.0025 61.8742 77.5421 63.8541 76.8737 65.7575C76.3082 67.3684 75.032 68.2093 73.252 68.1728C72.0421 68.151 70.8322 68.1705 69.3824 68.1705ZM76.5961 61.8308C76.7914 61.8456 76.9868 61.8605 77.1822 61.8753C77.2564 60.8002 77.3307 59.7252 77.4095 58.5735C76.6566 58.6615 76.2499 58.7095 75.7552 58.7666C75.81 58.3862 75.8477 58.1188 75.8992 57.7612C74.3751 58.0628 74.0106 57.1054 73.7181 56.0189C75.0754 56.3628 76.3607 56.6884 77.654 57.0163C78.0356 56.2417 78.0847 56.1697 77.1902 55.5562C74.4916 53.7042 71.7508 51.9139 68.9562 50.0517C69.5103 49.1114 69.1539 48.4031 68.1268 47.7667C66.7695 46.9258 65.5573 45.8462 64.192 45.0201C63.3455 44.5072 62.3572 44.1027 61.3849 43.9451C58.5264 43.4801 57.6787 44.1656 57.4959 47.0344C57.4422 47.8695 57.7141 48.7298 57.8661 49.573C58.0637 50.6709 58.2568 51.7711 58.5219 52.8531C58.6144 53.2301 58.8395 53.6448 59.1308 53.8927C60.712 55.2409 62.2875 56.6027 63.9567 57.8378C64.9552 58.577 65.1129 59.491 65.1106 60.6209C64.2149 60.4826 63.4186 60.3604 62.5686 60.229C61.8351 63.8141 64.0424 65.9643 66.1263 68.3944C67.591 66.603 69.5355 66.6887 71.5006 66.8452C71.8456 66.8726 72.1941 66.8555 72.5402 66.86C75.3268 66.8954 76.5835 65.1966 75.6444 62.1781C73.2509 62.8247 70.8402 63.4748 68.3896 64.1375C68.0937 63.2121 68.4113 62.8099 69.3047 62.7402C70.2952 62.6625 71.3075 62.6374 72.2649 62.4055C73.7353 62.0501 75.609 62.5334 76.3699 60.4107C76.4658 61.0128 76.531 61.4218 76.5961 61.8308ZM53.6206 47.0481C53.063 46.2609 52.5672 45.5034 52.0142 44.7894C50.2034 42.453 48.4154 41.9674 45.6391 43.0219C43.4627 43.848 42.8594 44.9619 43.4764 47.224C44.1664 49.7558 45.7865 51.6854 47.6556 53.4426C47.1849 51.9185 46.5154 50.4687 46.1315 48.9458C45.8219 47.7176 45.7545 46.4003 45.7911 45.1275C45.8048 44.6557 46.5405 43.7554 46.7462 43.8102C48.2646 44.2101 49.7327 44.8019 51.2156 45.3332C51.1802 45.4554 51.1448 45.5777 51.1082 45.6999C50.1851 45.7525 49.2631 45.8062 47.9012 45.8839C48.332 46.6231 48.5068 47.3977 48.9295 47.5736C52.2107 48.94 52.2256 48.9046 53.6206 47.0481ZM60.4172 42.3399C59.4747 39.1535 58.3048 37.995 55.8016 38.0567C53.3041 38.1172 50.8146 38.4782 48.3217 38.7079C48.3183 38.8393 48.316 38.9707 48.3125 39.102C52.3901 39.6996 56.5282 40.0686 60.4172 42.3399ZM61.0936 60.181C61.1919 60.0908 61.2913 59.9994 61.3895 59.9091C58.8806 56.5662 56.238 53.2986 55.2041 49.0006C53.4743 51.8523 53.5109 53.3741 55.6565 55.5105C57.3451 57.1911 59.2725 58.6329 61.0936 60.181ZM45.2564 40.617C45.2838 40.7312 45.3112 40.8443 45.3386 40.9586C49.3282 41.6966 53.3178 42.4358 57.4662 43.2036C56.5373 41.5824 55.1024 41.034 53.5417 40.8718C51.1836 40.6261 48.8107 40.5164 46.4423 40.3862C46.0527 40.3645 45.6528 40.5347 45.2564 40.617ZM44.7457 52.62C43.9974 52.2498 43.4432 51.9756 42.7749 51.6443C42.4538 52.4532 42.1728 53.1604 41.7649 54.1841C42.9097 53.5831 43.7243 53.1558 44.7457 52.62ZM53.4778 44.562C54.9207 45.5594 55.7467 45.4737 56.5019 44.1816C55.4554 44.3129 54.4991 44.4329 53.4778 44.562ZM48.4394 50.7132C48.4394 51.5415 48.4394 52.1813 48.4394 53.0896C48.9889 52.4463 49.3568 52.0168 49.7875 51.5129C49.2894 51.217 48.9078 50.9908 48.4394 50.7132Z" fill="white" fill-opacity="0.1"/>
<path d="M47.0626 75.3704C45.0119 74.0748 42.9622 72.7792 40.9126 71.4814C40.8772 71.4597 40.8532 71.4197 40.8258 71.3854C40.0969 70.4931 40.226 65.6021 41.0017 64.7212C41.91 63.6907 42.816 62.659 43.9585 61.7119C43.5095 64.4585 43.0594 67.2062 42.6104 69.9527C42.6778 69.9733 42.7452 69.9927 42.8126 70.0133C43.0571 69.5768 43.3027 69.1415 43.6774 68.4743C44.9582 70.7605 46.1532 72.8946 47.3483 75.0288C47.2546 75.1431 47.1586 75.2573 47.0626 75.3704Z" fill="white" fill-opacity="0.1"/>
<path d="M39.0755 54.9988C38.2152 56.9867 37.3537 58.9735 36.4934 60.9615C36.5186 60.9912 36.5437 61.022 36.5688 61.0517C37.0441 60.4633 37.5183 59.8749 37.9935 59.2854C38.0781 59.3071 38.1626 59.33 38.246 59.3517C38.0175 62.7552 37.789 66.1587 37.5605 69.5621C37.4417 69.6147 37.3218 69.6684 37.2029 69.7209C36.5837 68.8309 35.8159 68.0083 35.3704 67.0384C33.4898 62.946 33.4898 62.9094 35.712 58.9872C36.5517 57.5043 37.5937 56.1367 38.5442 54.7155C38.7224 54.8114 38.8995 54.9051 39.0755 54.9988Z" fill="white" fill-opacity="0.1"/>
<path d="M38.126 48.3541C38.6962 48.3929 39.0743 48.418 39.585 48.4523C38.3271 50.6116 37.1275 52.6715 35.9279 54.7303C35.8114 54.7063 35.6948 54.6812 35.5783 54.6572C35.496 52.523 35.3955 50.3888 35.3509 48.2535C35.3452 47.9656 35.5452 47.5897 35.7714 47.3932C37.1766 46.1765 38.6059 44.9849 40.0557 43.8218C40.2808 43.6413 40.6555 43.6459 40.9606 43.5636C41.0188 43.8949 41.0702 44.2285 41.1377 44.5587C41.5707 46.6815 40.3071 47.5292 38.5533 48.0193C38.4425 48.0513 38.3568 48.169 38.126 48.3541Z" fill="white" fill-opacity="0.1"/>
<path d="M38.9304 63.5709C39.0355 62.1291 38.8904 60.5879 39.3337 59.2397C39.6364 58.3166 40.7572 57.6608 41.6838 56.7091C40.6853 59.1963 39.8055 61.3899 38.9304 63.5709Z" fill="white" fill-opacity="0.1"/>
<path d="M64.0881 51.3268C64.8947 51.2422 65.7013 51.1565 66.4953 51.0731C67.0208 51.5438 67.5555 52.0237 68.2479 52.6429C66.7089 52.291 65.3425 51.9791 63.9761 51.6672C64.0127 51.5541 64.0504 51.4399 64.0881 51.3268Z" fill="white" fill-opacity="0.1"/>
<path d="M66.2622 48.1691C66.7375 48.8203 67.1271 49.3561 67.5167 49.8908C66.9512 50.1273 66.3845 50.3627 65.9697 50.5363C66.0646 49.7708 66.14 49.1608 66.2622 48.1691Z" fill="white" fill-opacity="0.1"/>
<path d="M60.103 27.6315C60.9576 27.3208 61.4603 26.3142 61.2421 25.262C61.0067 24.1218 60.015 23.3632 59.0268 23.5677C58.0397 23.7722 57.4296 24.8621 57.6661 26.0023C57.7403 26.3622 57.8912 26.6844 58.0922 26.9506L56.0232 28.0074L53.424 25.6413C53.8467 25.1717 54.0455 24.4611 53.8936 23.7276C53.6582 22.5874 52.6665 21.8288 51.6783 22.0333C50.6912 22.2378 50.0811 23.3277 50.3176 24.468C50.4204 24.9649 50.6672 25.3899 50.9939 25.6938L48.5913 28.2976L45.3843 26.8752C45.5728 26.4616 45.6356 25.9646 45.5305 25.4573C45.2952 24.3171 44.3035 23.5585 43.3152 23.763C42.3281 23.9675 41.718 25.0575 41.9545 26.1977C42.1053 26.9289 42.5692 27.5024 43.1416 27.7663L41.766 31.0613L39.4936 31.1721C39.5964 30.8225 39.6193 30.4318 39.537 30.0342C39.3017 28.894 38.31 28.1353 37.3217 28.3399C36.3346 28.5444 35.7245 29.6343 35.961 30.7745C36.1895 31.8793 37.1286 32.6242 38.0849 32.4825L40.8577 36.6206C40.8577 36.6206 49.0448 28.5958 59.662 32.9818L60.103 27.6315ZM58.4544 30.8179C57.2925 30.4695 48.8883 28.2633 40.8212 34.5242L40.9434 34.7207L39.3417 32.3968L42.4755 32.2449L44.3092 27.8554C44.3846 27.8326 44.4577 27.8063 44.5274 27.7732L48.8826 29.704L52.1216 26.192C52.2027 26.1965 52.2838 26.1954 52.3649 26.1874L55.9158 29.4195L58.9662 27.8612L58.4544 30.8179Z" fill="white" fill-opacity="0.1"/>
<path d="M45.2175 37.4946C45.2004 37.4683 45.1924 37.4546 45.1764 37.4272C45.4814 37.2124 45.5157 37.1313 45.422 36.9713C45.1078 36.4309 44.9502 36.1613 44.636 35.6209C44.5366 36.56 44.5194 37.0262 44.5434 37.9379C44.4989 37.9687 44.4772 37.9836 44.4338 38.0144C43.5917 37.6934 43.1507 37.5586 42.2356 37.3495C42.6115 37.7985 42.8 38.0224 43.177 38.4714C43.3313 38.6554 43.4466 38.6417 43.7825 38.4017C43.802 38.4269 43.8122 38.4394 43.8317 38.4634C43.4638 38.7525 43.2833 38.9044 42.9348 39.2232C42.9131 39.2003 42.9028 39.1878 42.8811 39.1649C43.1565 38.8793 43.1884 38.8153 43.0548 38.6611C42.6686 38.2132 42.4767 37.9893 42.0905 37.5426C41.9797 37.4135 41.8791 37.4352 41.5581 37.7037C41.5364 37.6808 41.5261 37.6683 41.5056 37.6454C41.9351 37.2535 42.1568 37.0673 42.6115 36.7154C43.3335 36.9096 43.6831 37.0239 44.3572 37.2867C44.3686 36.5612 44.3926 36.1933 44.4817 35.4518C44.9696 35.1662 45.2187 35.0337 45.7259 34.7892C45.7396 34.8177 45.7465 34.8315 45.7602 34.86C45.4015 35.0508 45.3546 35.1399 45.4631 35.3501C45.7111 35.8289 45.8345 36.0688 46.0824 36.5475C46.1886 36.752 46.2526 36.7874 46.6171 36.6355C46.6308 36.664 46.6376 36.6777 46.6513 36.7063C46.063 36.9908 45.7762 37.1484 45.2175 37.4946Z" fill="white" fill-opacity="0.1"/>
<path d="M46.8399 36.6173C46.8262 36.5887 46.8204 36.575 46.8067 36.5465C47.1323 36.3705 47.2009 36.3043 47.1232 36.1249C46.889 35.5811 46.7713 35.3091 46.5371 34.7653C46.4674 34.6031 46.3417 34.6042 45.9727 34.7596C45.959 34.731 45.9533 34.7173 45.9396 34.6888C46.6468 34.3586 47.009 34.2146 47.7447 33.9656C47.755 33.9953 47.7596 34.0101 47.7699 34.0398C47.386 34.1792 47.2957 34.2718 47.3574 34.4363C47.5631 34.9915 47.667 35.2692 47.8727 35.8244C47.9435 36.0163 48.0429 36.0118 48.4005 35.9078C48.4108 35.9375 48.4154 35.9524 48.4256 35.9821C47.7801 36.2003 47.4625 36.3271 46.8399 36.6173Z" fill="white" fill-opacity="0.1"/>
<path d="M50.5655 35.4268C50.5598 35.396 50.5564 35.38 50.5507 35.3492C50.8626 35.2852 50.9174 35.26 50.9117 35.2201C50.906 35.1858 50.8729 35.1595 50.7666 35.1001C50.3656 34.8796 50.1577 34.7756 49.7292 34.5825C49.6812 34.626 49.6584 34.6477 49.6104 34.6911C49.6675 34.931 49.6949 35.0521 49.7521 35.292C49.7875 35.4417 49.8675 35.4588 50.2182 35.4143C50.2251 35.4451 50.2273 35.4611 50.2342 35.492C49.5933 35.6245 49.2768 35.7079 48.653 35.9078C48.6438 35.8781 48.6381 35.8633 48.629 35.8324C48.9672 35.701 49.0197 35.6508 48.9695 35.4783C48.8038 34.907 48.7204 34.6214 48.5547 34.0501C48.4999 33.8628 48.3936 33.8502 48.0269 33.9542C48.0178 33.9245 48.0121 33.9096 48.0029 33.8788C48.7147 33.6503 49.0769 33.5554 49.808 33.4046C49.8149 33.4355 49.8172 33.4515 49.824 33.4823C49.4276 33.5806 49.367 33.6583 49.4116 33.8445C49.4756 34.1176 49.5087 34.2547 49.5727 34.5277C49.9406 34.1621 50.1348 33.985 50.5438 33.6423C50.6935 33.5177 50.738 33.4766 50.73 33.4275C50.7209 33.3646 50.6512 33.3498 50.4547 33.3726C50.3782 33.3818 50.3393 33.3864 50.2628 33.3966C50.257 33.3658 50.2548 33.3498 50.2491 33.3189C50.8786 33.2047 51.1973 33.1624 51.8348 33.1064C51.8371 33.1373 51.8394 33.1533 51.8417 33.1853C51.3013 33.271 51.0671 33.3349 50.2182 34.1324C50.9414 34.4786 51.2841 34.6728 51.9251 35.091C51.9879 35.1321 52.0485 35.1424 52.1707 35.1367C52.173 35.1675 52.1741 35.1835 52.1764 35.2155C51.5286 35.2658 51.2053 35.3092 50.5655 35.4268Z" fill="white" fill-opacity="0.1"/>
<path d="M54.0136 35.1823C54.0147 35.1503 54.0158 35.1355 54.017 35.1035C54.0798 35.1023 54.1118 35.1023 54.1747 35.1012C54.338 35.1001 54.4032 35.0795 54.4077 35.0109C54.4123 34.9424 54.362 34.827 54.2021 34.5699C53.7439 34.5459 53.5154 34.5425 53.0584 34.5517C53.0333 34.5951 53.0207 34.6168 52.9945 34.6602C52.9362 34.7596 52.8459 34.8944 52.8482 34.9698C52.8505 35.0521 52.9602 35.0806 53.2504 35.0909C53.2504 35.1229 53.2504 35.1378 53.2515 35.1697C52.8574 35.1732 52.6597 35.1812 52.2667 35.2097C52.2644 35.1777 52.2633 35.1629 52.261 35.1309C52.4838 35.0898 52.5512 35.0292 52.7294 34.7253C53.1453 34.0215 53.3772 33.6754 53.8913 33.0024C53.9542 33.0047 53.985 33.0047 54.0478 33.0082C54.5185 33.6845 54.7311 34.0307 55.1081 34.7333C55.3251 35.14 55.3983 35.22 55.5993 35.2497C55.5948 35.2806 55.5925 35.2966 55.5879 35.3274C54.9584 35.2372 54.6431 35.2075 54.0136 35.1823ZM53.624 33.6617C53.4172 33.9644 53.3189 34.1187 53.1316 34.4271C53.5303 34.4214 53.7302 34.4237 54.1301 34.4431C53.9382 34.1278 53.8365 33.9713 53.624 33.6617Z" fill="white" fill-opacity="0.1"/>
<path d="M59.5273 34.2327C59.3399 34.179 59.2199 34.1744 59.1217 34.2167C58.5836 34.4441 58.3254 34.5686 57.8295 34.8359C57.769 35.0519 57.7381 35.1593 57.6776 35.3752C57.6113 35.6117 57.6639 35.6642 58.0374 35.8048C58.0283 35.8345 58.0237 35.8493 58.0135 35.8802C57.3497 35.6711 57.0138 35.5866 56.3386 35.4552C56.3443 35.4243 56.3477 35.4083 56.3534 35.3775C56.7636 35.4346 56.8264 35.3866 56.879 35.157C56.9167 34.9902 56.9361 34.9068 56.9738 34.7388C56.6973 34.2521 56.5465 34.0122 56.222 33.5392C56.1363 33.4158 55.981 33.3187 55.7936 33.2856C55.7982 33.2547 55.8004 33.2387 55.805 33.2079C56.5488 33.3119 56.9201 33.3827 57.657 33.5678C57.649 33.5986 57.6456 33.6135 57.6376 33.6443C57.5782 33.6318 57.5485 33.626 57.4879 33.6146C57.2674 33.5712 57.1874 33.5643 57.1726 33.6352C57.1669 33.6626 57.2137 33.7609 57.2617 33.8465C57.4548 34.1916 57.545 34.3652 57.7153 34.7148C57.9986 34.5595 58.1437 34.4852 58.4396 34.3424C58.6167 34.2556 58.7355 34.1653 58.7549 34.1059C58.7835 34.0191 58.7058 33.9631 58.3402 33.8385C58.3493 33.8088 58.3539 33.7928 58.3631 33.7631C58.8429 33.9048 59.0828 33.9848 59.5558 34.163C59.5432 34.1893 59.5375 34.2041 59.5273 34.2327Z" fill="white" fill-opacity="0.1"/>
<path d="M69.3824 179.17C69.4304 181.129 68.4924 182.277 66.581 182.476C66.2223 182.513 65.8281 182.211 65.1277 181.94C66.5673 181.157 68.2982 181.156 68.008 178.944C66.8221 180.648 65.6167 179.893 64.5439 179.168C62.8313 178.011 61.2033 176.727 59.5501 175.481C59.1754 175.199 58.8452 174.856 58.2808 174.351C58.5607 176.704 59.7695 178.298 60.9645 179.875C62.1138 181.394 63.2872 182.902 64.5554 184.321C65.3597 185.221 64.7256 185.822 64.2229 186.293C63.6619 186.817 62.9547 186.91 62.3892 186.04C61.8237 185.173 61.1393 184.377 60.4549 183.595C59.6632 182.689 59.0291 181.774 59.3056 180.464C59.3627 180.191 59.1731 179.754 58.9526 179.551C57.04 177.793 56.2072 175.561 55.8416 173.048C55.5948 171.349 55.1207 169.683 54.49 167.983C54.2878 170.762 54.0844 173.54 53.8822 176.319C52.0645 171.245 52.3478 166.079 52.694 160.765C52.3878 161.126 52.0565 161.469 51.78 161.85C49.9749 164.345 48.7947 167.129 48.3994 170.169C48.0224 173.076 48.9306 175.732 51.3756 177.368C54.2718 179.305 56.1146 182.122 58.3162 184.65C58.996 185.431 59.6255 186.256 60.2779 187.062C60.2333 187.19 60.1899 187.316 60.1453 187.444C59.6758 187.314 59.0874 187.32 58.7549 187.031C57.0606 185.557 55.4943 183.931 53.7657 182.501C51.4395 180.573 49.4013 178.439 48.0646 175.67C47.0707 177.225 47.3666 181.603 49.078 183.59C51.1014 185.937 53.6868 186.646 56.871 186.416C53.143 187.938 49.4939 185.622 47.8704 183.199C47.8224 183.128 47.7984 183.041 47.7539 182.967C45.2084 178.765 45.213 178.766 46.3726 173.178C46.6971 171.615 46.9827 170.045 47.2992 168.413C46.3646 168.083 45.6677 168.143 45.0999 169.065C44.4304 170.154 43.6375 171.166 42.88 172.237C41.4587 169.193 43.7094 167.242 44.6748 164.783C43.2033 165.759 41.7306 166.734 40.0409 167.854C40.0409 167.113 39.9187 166.499 40.066 165.959C40.4065 164.71 40.8989 163.502 41.2828 162.265C41.405 161.871 41.4862 161.41 41.405 161.019C41.2577 160.308 41.3125 159.773 41.9751 159.332C42.1956 159.186 42.3362 158.77 42.343 158.474C42.3773 156.926 42.311 155.375 42.3682 153.828C42.4241 152.305 44.067 150.549 45.5637 150.166C46.1647 150.013 46.6913 149.59 47.2832 149.375C48.5285 148.922 49.7715 148.423 51.058 148.124C53.223 147.623 55.3994 147.514 57.5907 148.178C59.742 148.83 61.1484 150.172 62.0259 152.216C62.3115 152.882 62.8142 153.547 63.3912 153.981C65.3939 155.488 67.4961 156.861 69.5001 158.366C69.8714 158.644 70.1456 159.295 70.1467 159.773C70.1479 160.674 70.6208 161.012 71.3063 161.426C73.6713 162.855 76.0191 164.321 78.279 165.907C78.7428 166.233 79.0067 167.138 78.9999 167.772C78.9885 168.822 78.744 169.883 78.4892 170.913C78.0025 172.874 77.5421 174.854 76.8737 176.758C76.3082 178.368 75.032 179.209 73.252 179.173C72.0421 179.151 70.8322 179.17 69.3824 179.17ZM76.5961 172.831C76.7914 172.846 76.9868 172.86 77.1822 172.875C77.2564 171.8 77.3307 170.725 77.4095 169.574C76.6566 169.662 76.2499 169.709 75.7552 169.767C75.81 169.386 75.8477 169.119 75.8992 168.761C74.3751 169.063 74.0106 168.105 73.7181 167.019C75.0754 167.363 76.3607 167.688 77.654 168.016C78.0356 167.242 78.0847 167.17 77.1902 166.556C74.4916 164.704 71.7508 162.914 68.9562 161.052C69.5103 160.111 69.1539 159.403 68.1268 158.767C66.7695 157.926 65.5573 156.846 64.192 156.02C63.3455 155.507 62.3572 155.103 61.3849 154.945C58.5264 154.48 57.6787 155.166 57.4959 158.034C57.4422 158.87 57.7141 159.73 57.8661 160.573C58.0637 161.671 58.2568 162.771 58.5219 163.853C58.6144 164.23 58.8395 164.645 59.1308 164.893C60.712 166.241 62.2875 167.603 63.9567 168.838C64.9552 169.577 65.1129 170.491 65.1106 171.621C64.2149 171.483 63.4186 171.36 62.5686 171.229C61.8351 174.814 64.0424 176.964 66.1263 179.394C67.591 177.603 69.5355 177.689 71.5006 177.845C71.8456 177.873 72.1941 177.855 72.5402 177.86C75.3268 177.895 76.5835 176.197 75.6444 173.178C73.2509 173.825 70.8402 174.475 68.3896 175.137C68.0937 174.212 68.4113 173.81 69.3047 173.74C70.2952 173.663 71.3075 173.637 72.2649 173.405C73.7353 173.05 75.609 173.533 76.3699 171.411C76.4658 172.013 76.531 172.422 76.5961 172.831ZM53.6206 158.048C53.063 157.261 52.5672 156.503 52.0142 155.789C50.2034 153.453 48.4154 152.967 45.6391 154.022C43.4627 154.848 42.8594 155.962 43.4764 158.224C44.1664 160.756 45.7865 162.685 47.6556 164.443C47.1849 162.919 46.5154 161.469 46.1315 159.946C45.8219 158.718 45.7545 157.4 45.7911 156.128C45.8048 155.656 46.5405 154.755 46.7462 154.81C48.2646 155.21 49.7327 155.802 51.2156 156.333C51.1802 156.455 51.1448 156.578 51.1082 156.7C50.1851 156.752 49.2631 156.806 47.9012 156.884C48.332 157.623 48.5068 158.398 48.9295 158.574C52.2107 159.94 52.2256 159.905 53.6206 158.048ZM60.4172 153.34C59.4747 150.153 58.3048 148.995 55.8016 149.057C53.3041 149.117 50.8146 149.478 48.3217 149.708C48.3183 149.839 48.316 149.971 48.3125 150.102C52.3901 150.7 56.5282 151.069 60.4172 153.34ZM61.0936 171.181C61.1919 171.091 61.2913 170.999 61.3895 170.909C58.8806 167.566 56.238 164.299 55.2041 160.001C53.4743 162.852 53.5109 164.374 55.6565 166.511C57.3451 168.191 59.2725 169.633 61.0936 171.181ZM45.2564 151.617C45.2838 151.731 45.3112 151.844 45.3386 151.959C49.3282 152.697 53.3178 153.436 57.4662 154.204C56.5373 152.582 55.1024 152.034 53.5417 151.872C51.1836 151.626 48.8107 151.516 46.4423 151.386C46.0527 151.364 45.6528 151.535 45.2564 151.617ZM44.7457 163.62C43.9974 163.25 43.4432 162.976 42.7749 162.644C42.4538 163.453 42.1728 164.16 41.7649 165.184C42.9097 164.583 43.7243 164.156 44.7457 163.62ZM53.4778 155.562C54.9207 156.559 55.7467 156.474 56.5019 155.182C55.4554 155.313 54.4991 155.433 53.4778 155.562ZM48.4394 161.713C48.4394 162.541 48.4394 163.181 48.4394 164.09C48.9889 163.446 49.3568 163.017 49.7875 162.513C49.2894 162.217 48.9078 161.991 48.4394 161.713Z" fill="white" fill-opacity="0.1"/>
<path d="M47.0626 186.37C45.0119 185.075 42.9622 183.779 40.9126 182.481C40.8772 182.46 40.8532 182.42 40.8258 182.385C40.0969 181.493 40.226 176.602 41.0017 175.721C41.91 174.691 42.816 173.659 43.9585 172.712C43.5095 175.458 43.0594 178.206 42.6104 180.953C42.6778 180.973 42.7452 180.993 42.8126 181.013C43.0571 180.577 43.3027 180.142 43.6774 179.474C44.9582 181.76 46.1532 183.895 47.3483 186.029C47.2546 186.143 47.1586 186.257 47.0626 186.37Z" fill="white" fill-opacity="0.1"/>
<path d="M39.0755 165.999C38.2152 167.987 37.3537 169.974 36.4934 171.961C36.5186 171.991 36.5437 172.022 36.5688 172.052C37.0441 171.463 37.5183 170.875 37.9935 170.285C38.0781 170.307 38.1626 170.33 38.246 170.352C38.0175 173.755 37.789 177.159 37.5605 180.562C37.4417 180.615 37.3218 180.668 37.2029 180.721C36.5837 179.831 35.8159 179.008 35.3704 178.038C33.4898 173.946 33.4898 173.909 35.712 169.987C36.5517 168.504 37.5937 167.137 38.5442 165.715C38.7224 165.811 38.8995 165.905 39.0755 165.999Z" fill="white" fill-opacity="0.1"/>
<path d="M38.126 159.354C38.6962 159.393 39.0743 159.418 39.585 159.452C38.3271 161.612 37.1275 163.672 35.9279 165.73C35.8114 165.706 35.6948 165.681 35.5783 165.657C35.496 163.523 35.3955 161.389 35.3509 159.254C35.3452 158.966 35.5452 158.59 35.7714 158.393C37.1766 157.176 38.6059 155.985 40.0557 154.822C40.2808 154.641 40.6555 154.646 40.9606 154.564C41.0188 154.895 41.0702 155.229 41.1377 155.559C41.5707 157.681 40.3071 158.529 38.5533 159.019C38.4425 159.051 38.3568 159.169 38.126 159.354Z" fill="white" fill-opacity="0.1"/>
<path d="M38.9304 174.571C39.0355 173.129 38.8904 171.588 39.3337 170.24C39.6364 169.317 40.7572 168.661 41.6838 167.709C40.6853 170.196 39.8055 172.39 38.9304 174.571Z" fill="white" fill-opacity="0.1"/>
<path d="M64.0881 162.327C64.8947 162.242 65.7013 162.157 66.4953 162.073C67.0208 162.544 67.5555 163.024 68.2479 163.643C66.7089 163.291 65.3425 162.979 63.9761 162.667C64.0127 162.554 64.0504 162.44 64.0881 162.327Z" fill="white" fill-opacity="0.1"/>
<path d="M66.2622 159.169C66.7375 159.82 67.1271 160.356 67.5167 160.891C66.9512 161.127 66.3845 161.363 65.9697 161.536C66.0646 160.771 66.14 160.161 66.2622 159.169Z" fill="white" fill-opacity="0.1"/>
<path d="M60.103 138.632C60.9576 138.321 61.4603 137.314 61.2421 136.262C61.0067 135.122 60.015 134.363 59.0268 134.568C58.0397 134.772 57.4296 135.862 57.6661 137.002C57.7403 137.362 57.8912 137.684 58.0922 137.951L56.0232 139.007L53.424 136.641C53.8467 136.172 54.0455 135.461 53.8936 134.728C53.6582 133.587 52.6665 132.829 51.6783 133.033C50.6912 133.238 50.0811 134.328 50.3176 135.468C50.4204 135.965 50.6672 136.39 50.9939 136.694L48.5913 139.298L45.3843 137.875C45.5728 137.462 45.6356 136.965 45.5305 136.457C45.2952 135.317 44.3035 134.559 43.3152 134.763C42.3281 134.968 41.718 136.057 41.9545 137.198C42.1053 137.929 42.5692 138.502 43.1416 138.766L41.766 142.061L39.4936 142.172C39.5964 141.822 39.6193 141.432 39.537 141.034C39.3017 139.894 38.31 139.135 37.3217 139.34C36.3346 139.544 35.7245 140.634 35.961 141.775C36.1895 142.879 37.1286 143.624 38.0849 143.483L40.8577 147.621C40.8577 147.621 49.0448 139.596 59.662 143.982L60.103 138.632ZM58.4544 141.818C57.2925 141.469 48.8883 139.263 40.8212 145.524L40.9434 145.721L39.3417 143.397L42.4755 143.245L44.3092 138.855C44.3846 138.833 44.4577 138.806 44.5274 138.773L48.8826 140.704L52.1216 137.192C52.2027 137.197 52.2838 137.195 52.3649 137.187L55.9158 140.42L58.9662 138.861L58.4544 141.818Z" fill="white" fill-opacity="0.1"/>
<path d="M45.2175 148.495C45.2004 148.468 45.1924 148.455 45.1764 148.427C45.4814 148.212 45.5157 148.131 45.422 147.971C45.1078 147.431 44.9502 147.161 44.636 146.621C44.5366 147.56 44.5194 148.026 44.5434 148.938C44.4989 148.969 44.4772 148.984 44.4338 149.014C43.5917 148.693 43.1507 148.559 42.2356 148.35C42.6115 148.799 42.8 149.022 43.177 149.471C43.3313 149.655 43.4466 149.642 43.7825 149.402C43.802 149.427 43.8122 149.439 43.8317 149.463C43.4638 149.752 43.2833 149.904 42.9348 150.223C42.9131 150.2 42.9028 150.188 42.8811 150.165C43.1565 149.879 43.1884 149.815 43.0548 149.661C42.6686 149.213 42.4767 148.989 42.0905 148.543C41.9797 148.413 41.8791 148.435 41.5581 148.704C41.5364 148.681 41.5261 148.668 41.5056 148.645C41.9351 148.254 42.1568 148.067 42.6115 147.715C43.3335 147.91 43.6831 148.024 44.3572 148.287C44.3686 147.561 44.3926 147.193 44.4817 146.452C44.9696 146.166 45.2187 146.034 45.7259 145.789C45.7396 145.818 45.7465 145.831 45.7602 145.86C45.4015 146.051 45.3546 146.14 45.4631 146.35C45.7111 146.829 45.8345 147.069 46.0824 147.547C46.1886 147.752 46.2526 147.787 46.6171 147.635C46.6308 147.664 46.6376 147.678 46.6513 147.706C46.063 147.991 45.7762 148.148 45.2175 148.495Z" fill="white" fill-opacity="0.1"/>
<path d="M46.8399 147.617C46.8262 147.589 46.8204 147.575 46.8067 147.546C47.1323 147.371 47.2009 147.304 47.1232 147.125C46.889 146.581 46.7713 146.309 46.5371 145.765C46.4674 145.603 46.3417 145.604 45.9727 145.76C45.959 145.731 45.9533 145.717 45.9396 145.689C46.6468 145.359 47.009 145.215 47.7447 144.966C47.755 144.995 47.7596 145.01 47.7699 145.04C47.386 145.179 47.2957 145.272 47.3574 145.436C47.5631 145.992 47.667 146.269 47.8727 146.824C47.9435 147.016 48.0429 147.012 48.4005 146.908C48.4108 146.938 48.4154 146.952 48.4256 146.982C47.7801 147.2 47.4625 147.327 46.8399 147.617Z" fill="white" fill-opacity="0.1"/>
<path d="M50.5655 146.427C50.5598 146.396 50.5564 146.38 50.5507 146.349C50.8626 146.285 50.9174 146.26 50.9117 146.22C50.906 146.186 50.8729 146.16 50.7666 146.1C50.3656 145.88 50.1577 145.776 49.7292 145.583C49.6812 145.626 49.6584 145.648 49.6104 145.691C49.6675 145.931 49.6949 146.052 49.7521 146.292C49.7875 146.442 49.8675 146.459 50.2182 146.414C50.2251 146.445 50.2273 146.461 50.2342 146.492C49.5933 146.624 49.2768 146.708 48.653 146.908C48.6438 146.878 48.6381 146.863 48.629 146.832C48.9672 146.701 49.0197 146.651 48.9695 146.478C48.8038 145.907 48.7204 145.621 48.5547 145.05C48.4999 144.863 48.3936 144.85 48.0269 144.954C48.0178 144.924 48.0121 144.91 48.0029 144.879C48.7147 144.65 49.0769 144.555 49.808 144.405C49.8149 144.435 49.8172 144.451 49.824 144.482C49.4276 144.581 49.367 144.658 49.4116 144.844C49.4756 145.118 49.5087 145.255 49.5727 145.528C49.9406 145.162 50.1348 144.985 50.5438 144.642C50.6935 144.518 50.738 144.477 50.73 144.427C50.7209 144.365 50.6512 144.35 50.4547 144.373C50.3782 144.382 50.3393 144.386 50.2628 144.397C50.257 144.366 50.2548 144.35 50.2491 144.319C50.8786 144.205 51.1973 144.162 51.8348 144.106C51.8371 144.137 51.8394 144.153 51.8417 144.185C51.3013 144.271 51.0671 144.335 50.2182 145.132C50.9414 145.479 51.2841 145.673 51.9251 146.091C51.9879 146.132 52.0485 146.142 52.1707 146.137C52.173 146.168 52.1741 146.183 52.1764 146.215C51.5286 146.266 51.2053 146.309 50.5655 146.427Z" fill="white" fill-opacity="0.1"/>
<path d="M54.0136 146.182C54.0147 146.15 54.0158 146.135 54.017 146.103C54.0798 146.102 54.1118 146.102 54.1747 146.101C54.338 146.1 54.4032 146.079 54.4077 146.011C54.4123 145.942 54.362 145.827 54.2021 145.57C53.7439 145.546 53.5154 145.543 53.0584 145.552C53.0333 145.595 53.0207 145.617 52.9945 145.66C52.9362 145.76 52.8459 145.894 52.8482 145.97C52.8505 146.052 52.9602 146.081 53.2504 146.091C53.2504 146.123 53.2504 146.138 53.2515 146.17C52.8574 146.173 52.6597 146.181 52.2667 146.21C52.2644 146.178 52.2633 146.163 52.261 146.131C52.4838 146.09 52.5512 146.029 52.7294 145.725C53.1453 145.022 53.3772 144.675 53.8913 144.002C53.9542 144.005 53.985 144.005 54.0478 144.008C54.5185 144.685 54.7311 145.031 55.1081 145.733C55.3251 146.14 55.3983 146.22 55.5993 146.25C55.5948 146.281 55.5925 146.297 55.5879 146.327C54.9584 146.237 54.6431 146.207 54.0136 146.182ZM53.624 144.662C53.4172 144.964 53.3189 145.119 53.1316 145.427C53.5303 145.421 53.7302 145.424 54.1301 145.443C53.9382 145.128 53.8365 144.971 53.624 144.662Z" fill="white" fill-opacity="0.1"/>
<path d="M59.5273 145.233C59.3399 145.179 59.2199 145.174 59.1217 145.217C58.5836 145.444 58.3254 145.569 57.8295 145.836C57.769 146.052 57.7381 146.159 57.6776 146.375C57.6113 146.612 57.6639 146.664 58.0374 146.805C58.0283 146.834 58.0237 146.849 58.0135 146.88C57.3497 146.671 57.0138 146.587 56.3386 146.455C56.3443 146.424 56.3477 146.408 56.3534 146.377C56.7636 146.435 56.8264 146.387 56.879 146.157C56.9167 145.99 56.9361 145.907 56.9738 145.739C56.6973 145.252 56.5465 145.012 56.222 144.539C56.1363 144.416 55.981 144.319 55.7936 144.286C55.7982 144.255 55.8004 144.239 55.805 144.208C56.5488 144.312 56.9201 144.383 57.657 144.568C57.649 144.599 57.6456 144.613 57.6376 144.644C57.5782 144.632 57.5485 144.626 57.4879 144.615C57.2674 144.571 57.1874 144.564 57.1726 144.635C57.1669 144.663 57.2137 144.761 57.2617 144.847C57.4548 145.192 57.545 145.365 57.7153 145.715C57.9986 145.559 58.1437 145.485 58.4396 145.342C58.6167 145.256 58.7355 145.165 58.7549 145.106C58.7835 145.019 58.7058 144.963 58.3402 144.839C58.3493 144.809 58.3539 144.793 58.3631 144.763C58.8429 144.905 59.0828 144.985 59.5558 145.163C59.5432 145.189 59.5375 145.204 59.5273 145.233Z" fill="white" fill-opacity="0.1"/>
<path d="M146.382 123.17C146.43 125.129 145.492 126.277 143.581 126.476C143.222 126.513 142.828 126.211 142.128 125.94C143.567 125.157 145.298 125.156 145.008 122.944C143.822 124.648 142.617 123.893 141.544 123.168C139.831 122.011 138.203 120.727 136.55 119.481C136.175 119.199 135.845 118.856 135.281 118.351C135.561 120.704 136.769 122.298 137.965 123.875C139.114 125.394 140.287 126.902 141.555 128.321C142.36 129.221 141.726 129.822 141.223 130.293C140.662 130.817 139.955 130.91 139.389 130.04C138.824 129.173 138.139 128.377 137.455 127.595C136.663 126.689 136.029 125.774 136.306 124.464C136.363 124.191 136.173 123.754 135.953 123.551C134.04 121.793 133.207 119.561 132.842 117.048C132.595 115.349 132.121 113.683 131.49 111.983C131.288 114.762 131.084 117.54 130.882 120.319C129.064 115.245 129.348 110.079 129.694 104.765C129.388 105.126 129.056 105.469 128.78 105.85C126.975 108.345 125.795 111.129 125.399 114.169C125.022 117.076 125.931 119.732 128.376 121.368C131.272 123.305 133.115 126.122 135.316 128.65C135.996 129.431 136.626 130.256 137.278 131.062C137.233 131.19 137.19 131.316 137.145 131.444C136.676 131.314 136.087 131.32 135.755 131.031C134.061 129.557 132.494 127.931 130.766 126.501C128.44 124.573 126.401 122.439 125.065 119.67C124.071 121.225 124.367 125.603 126.078 127.59C128.101 129.937 130.687 130.646 133.871 130.416C130.143 131.938 126.494 129.622 124.87 127.199C124.822 127.128 124.798 127.041 124.754 126.967C122.208 122.765 122.213 122.766 123.373 117.178C123.697 115.615 123.983 114.045 124.299 112.413C123.365 112.083 122.668 112.143 122.1 113.065C121.43 114.154 120.637 115.166 119.88 116.237C118.459 113.193 120.709 111.242 121.675 108.783C120.203 109.759 118.731 110.734 117.041 111.854C117.041 111.113 116.919 110.499 117.066 109.959C117.406 108.71 117.899 107.502 118.283 106.265C118.405 105.871 118.486 105.41 118.405 105.019C118.258 104.308 118.312 103.773 118.975 103.332C119.196 103.186 119.336 102.77 119.343 102.474C119.377 100.926 119.311 99.3746 119.368 97.8277C119.424 96.3048 121.067 94.5488 122.564 94.166C123.165 94.0129 123.691 93.5902 124.283 93.3754C125.528 92.9218 126.772 92.4226 128.058 92.1244C130.223 91.6228 132.399 91.5143 134.591 92.1781C136.742 92.8304 138.148 94.1717 139.026 96.2156C139.311 96.8817 139.814 97.5467 140.391 97.9808C142.394 99.4877 144.496 100.861 146.5 102.366C146.871 102.644 147.146 103.295 147.147 103.773C147.148 104.674 147.621 105.012 148.306 105.426C150.671 106.855 153.019 108.321 155.279 109.907C155.743 110.233 156.007 111.138 156 111.772C155.988 112.822 155.744 113.883 155.489 114.913C155.002 116.874 154.542 118.854 153.874 120.758C153.308 122.368 152.032 123.209 150.252 123.173C149.042 123.151 147.832 123.17 146.382 123.17ZM153.596 116.831C153.791 116.846 153.987 116.86 154.182 116.875C154.256 115.8 154.331 114.725 154.41 113.574C153.657 113.662 153.25 113.709 152.755 113.767C152.81 113.386 152.848 113.119 152.899 112.761C151.375 113.063 151.011 112.105 150.718 111.019C152.075 111.363 153.361 111.688 154.654 112.016C155.036 111.242 155.085 111.17 154.19 110.556C151.492 108.704 148.751 106.914 145.956 105.052C146.51 104.111 146.154 103.403 145.127 102.767C143.77 101.926 142.557 100.846 141.192 100.02C140.345 99.5072 139.357 99.1027 138.385 98.9451C135.526 98.4801 134.679 99.1656 134.496 102.034C134.442 102.87 134.714 103.73 134.866 104.573C135.064 105.671 135.257 106.771 135.522 107.853C135.614 108.23 135.839 108.645 136.131 108.893C137.712 110.241 139.288 111.603 140.957 112.838C141.955 113.577 142.113 114.491 142.111 115.621C141.215 115.483 140.419 115.36 139.569 115.229C138.835 118.814 141.042 120.964 143.126 123.394C144.591 121.603 146.535 121.689 148.501 121.845C148.846 121.873 149.194 121.855 149.54 121.86C152.327 121.895 153.584 120.197 152.644 117.178C150.251 117.825 147.84 118.475 145.39 119.137C145.094 118.212 145.411 117.81 146.305 117.74C147.295 117.663 148.307 117.637 149.265 117.405C150.735 117.05 152.609 117.533 153.37 115.411C153.466 116.013 153.531 116.422 153.596 116.831ZM130.621 102.048C130.063 101.261 129.567 100.503 129.014 99.7894C127.203 97.453 125.415 96.9674 122.639 98.0219C120.463 98.848 119.859 99.9619 120.476 102.224C121.166 104.756 122.786 106.685 124.656 108.443C124.185 106.919 123.515 105.469 123.132 103.946C122.822 102.718 122.755 101.4 122.791 100.128C122.805 99.6557 123.541 98.7554 123.746 98.8102C125.265 99.2101 126.733 99.8019 128.216 100.333C128.18 100.455 128.145 100.578 128.108 100.7C127.185 100.752 126.263 100.806 124.901 100.884C125.332 101.623 125.507 102.398 125.929 102.574C129.211 103.94 129.226 103.905 130.621 102.048ZM137.417 97.3399C136.475 94.1535 135.305 92.995 132.802 93.0567C130.304 93.1172 127.815 93.4782 125.322 93.7079C125.318 93.8393 125.316 93.9707 125.313 94.102C129.39 94.6996 133.528 95.0686 137.417 97.3399ZM138.094 115.181C138.192 115.091 138.291 114.999 138.39 114.909C135.881 111.566 133.238 108.299 132.204 104.001C130.474 106.852 130.511 108.374 132.656 110.511C134.345 112.191 136.272 113.633 138.094 115.181ZM122.256 95.617C122.284 95.7312 122.311 95.8443 122.339 95.9586C126.328 96.6966 130.318 97.4358 134.466 98.2036C133.537 96.5824 132.102 96.034 130.542 95.8718C128.184 95.6261 125.811 95.5164 123.442 95.3862C123.053 95.3645 122.653 95.5347 122.256 95.617ZM121.746 107.62C120.997 107.25 120.443 106.976 119.775 106.644C119.454 107.453 119.173 108.16 118.765 109.184C119.91 108.583 120.724 108.156 121.746 107.62ZM130.478 99.562C131.921 100.559 132.747 100.474 133.502 99.1816C132.455 99.3129 131.499 99.4329 130.478 99.562ZM125.439 105.713C125.439 106.541 125.439 107.181 125.439 108.09C125.989 107.446 126.357 107.017 126.788 106.513C126.289 106.217 125.908 105.991 125.439 105.713Z" fill="white" fill-opacity="0.1"/>
<path d="M124.063 130.37C122.012 129.075 119.962 127.779 117.913 126.481C117.877 126.46 117.853 126.42 117.826 126.385C117.097 125.493 117.226 120.602 118.002 119.721C118.91 118.691 119.816 117.659 120.958 116.712C120.509 119.458 120.059 122.206 119.61 124.953C119.678 124.973 119.745 124.993 119.813 125.013C120.057 124.577 120.303 124.142 120.677 123.474C121.958 125.76 123.153 127.895 124.348 130.029C124.255 130.143 124.159 130.257 124.063 130.37Z" fill="white" fill-opacity="0.1"/>
<path d="M116.075 109.999C115.215 111.987 114.354 113.974 113.493 115.961C113.519 115.991 113.544 116.022 113.569 116.052C114.044 115.463 114.518 114.875 114.994 114.285C115.078 114.307 115.163 114.33 115.246 114.352C115.018 117.755 114.789 121.159 114.561 124.562C114.442 124.615 114.322 124.668 114.203 124.721C113.584 123.831 112.816 123.008 112.37 122.038C110.49 117.946 110.49 117.909 112.712 113.987C113.552 112.504 114.594 111.137 115.544 109.715C115.722 109.811 115.9 109.905 116.075 109.999Z" fill="white" fill-opacity="0.1"/>
<path d="M115.126 103.354C115.696 103.393 116.074 103.418 116.585 103.452C115.327 105.612 114.128 107.672 112.928 109.73C112.811 109.706 112.695 109.681 112.578 109.657C112.496 107.523 112.395 105.389 112.351 103.254C112.345 102.966 112.545 102.59 112.771 102.393C114.177 101.176 115.606 99.9849 117.056 98.8218C117.281 98.6413 117.656 98.6459 117.961 98.5636C118.019 98.8949 118.07 99.2285 118.138 99.5587C118.571 101.681 117.307 102.529 115.553 103.019C115.443 103.051 115.357 103.169 115.126 103.354Z" fill="white" fill-opacity="0.1"/>
<path d="M115.93 118.571C116.035 117.129 115.89 115.588 116.334 114.24C116.636 113.317 117.757 112.661 118.684 111.709C117.685 114.196 116.806 116.39 115.93 118.571Z" fill="white" fill-opacity="0.1"/>
<path d="M141.088 106.327C141.895 106.242 142.701 106.157 143.495 106.073C144.021 106.544 144.556 107.024 145.248 107.643C143.709 107.291 142.343 106.979 140.976 106.667C141.013 106.554 141.05 106.44 141.088 106.327Z" fill="white" fill-opacity="0.1"/>
<path d="M143.262 103.169C143.738 103.82 144.127 104.356 144.517 104.891C143.951 105.127 143.384 105.363 142.97 105.536C143.065 104.771 143.14 104.161 143.262 103.169Z" fill="white" fill-opacity="0.1"/>
<path d="M137.103 82.6315C137.958 82.3208 138.46 81.3142 138.242 80.262C138.007 79.1218 137.015 78.3632 136.027 78.5677C135.04 78.7722 134.43 79.8621 134.666 81.0023C134.74 81.3622 134.891 81.6844 135.092 81.9506L133.023 83.0074L130.424 80.6413C130.847 80.1717 131.046 79.4611 130.894 78.7276C130.658 77.5874 129.667 76.8288 128.678 77.0333C127.691 77.2378 127.081 78.3277 127.318 79.468C127.42 79.9649 127.667 80.3899 127.994 80.6938L125.591 83.2976L122.384 81.8752C122.573 81.4616 122.636 80.9646 122.531 80.4573C122.295 79.3171 121.303 78.5585 120.315 78.763C119.328 78.9675 118.718 80.0575 118.955 81.1977C119.105 81.9289 119.569 82.5024 120.142 82.7663L118.766 86.0613L116.494 86.1721C116.596 85.8225 116.619 85.4318 116.537 85.0342C116.302 83.894 115.31 83.1353 114.322 83.3399C113.335 83.5444 112.725 84.6343 112.961 85.7745C113.19 86.8793 114.129 87.6242 115.085 87.4825L117.858 91.6206C117.858 91.6206 126.045 83.5958 136.662 87.9818L137.103 82.6315ZM135.454 85.8179C134.292 85.4695 125.888 83.2633 117.821 89.5242L117.943 89.7207L116.342 87.3968L119.476 87.2449L121.309 82.8554C121.385 82.8326 121.458 82.8063 121.527 82.7732L125.883 84.704L129.122 81.192C129.203 81.1965 129.284 81.1954 129.365 81.1874L132.916 84.4195L135.966 82.8612L135.454 85.8179Z" fill="white" fill-opacity="0.1"/>
<path d="M122.218 92.4946C122.2 92.4683 122.192 92.4546 122.176 92.4272C122.481 92.2124 122.516 92.1313 122.422 91.9713C122.108 91.4309 121.95 91.1613 121.636 90.6209C121.537 91.56 121.519 92.0262 121.543 92.9379C121.499 92.9687 121.477 92.9836 121.434 93.0144C120.592 92.6934 120.151 92.5586 119.236 92.3495C119.611 92.7985 119.8 93.0224 120.177 93.4714C120.331 93.6554 120.447 93.6417 120.783 93.4017C120.802 93.4269 120.812 93.4394 120.832 93.4634C120.464 93.7525 120.283 93.9044 119.935 94.2232C119.913 94.2003 119.903 94.1878 119.881 94.1649C120.156 93.8793 120.188 93.8153 120.055 93.6611C119.669 93.2132 119.477 92.9893 119.091 92.5426C118.98 92.4135 118.879 92.4352 118.558 92.7037C118.536 92.6808 118.526 92.6683 118.506 92.6454C118.935 92.2535 119.157 92.0673 119.611 91.7154C120.334 91.9096 120.683 92.0239 121.357 92.2867C121.369 91.5612 121.393 91.1933 121.482 90.4518C121.97 90.1662 122.219 90.0337 122.726 89.7892C122.74 89.8177 122.746 89.8315 122.76 89.86C122.401 90.0508 122.355 90.1399 122.463 90.3501C122.711 90.8289 122.834 91.0688 123.082 91.5475C123.189 91.752 123.253 91.7874 123.617 91.6355C123.631 91.664 123.638 91.6777 123.651 91.7063C123.063 91.9908 122.776 92.1484 122.218 92.4946Z" fill="white" fill-opacity="0.1"/>
<path d="M123.84 91.6173C123.826 91.5887 123.82 91.575 123.807 91.5465C124.132 91.3705 124.201 91.3043 124.123 91.1249C123.889 90.5811 123.771 90.3091 123.537 89.7653C123.467 89.6031 123.342 89.6042 122.973 89.7596C122.959 89.731 122.953 89.7173 122.94 89.6888C123.647 89.3586 124.009 89.2146 124.745 88.9656C124.755 88.9953 124.76 89.0101 124.77 89.0398C124.386 89.1792 124.296 89.2718 124.357 89.4363C124.563 89.9915 124.667 90.2692 124.873 90.8244C124.944 91.0163 125.043 91.0118 125.401 90.9078C125.411 90.9375 125.415 90.9524 125.426 90.9821C124.78 91.2003 124.463 91.3271 123.84 91.6173Z" fill="white" fill-opacity="0.1"/>
<path d="M127.566 90.4268C127.56 90.396 127.556 90.38 127.551 90.3492C127.863 90.2852 127.917 90.26 127.912 90.2201C127.906 90.1858 127.873 90.1595 127.767 90.1001C127.366 89.8796 127.158 89.7756 126.729 89.5825C126.681 89.626 126.658 89.6477 126.61 89.6911C126.668 89.931 126.695 90.0521 126.752 90.292C126.787 90.4417 126.867 90.4588 127.218 90.4143C127.225 90.4451 127.227 90.4611 127.234 90.492C126.593 90.6245 126.277 90.7079 125.653 90.9078C125.644 90.8781 125.638 90.8633 125.629 90.8324C125.967 90.701 126.02 90.6508 125.969 90.4783C125.804 89.907 125.72 89.6214 125.555 89.0501C125.5 88.8628 125.394 88.8502 125.027 88.9542C125.018 88.9245 125.012 88.9096 125.003 88.8788C125.715 88.6503 126.077 88.5554 126.808 88.4046C126.815 88.4355 126.817 88.4515 126.824 88.4823C126.428 88.5806 126.367 88.6583 126.412 88.8445C126.476 89.1176 126.509 89.2547 126.573 89.5277C126.941 89.1621 127.135 88.985 127.544 88.6423C127.693 88.5177 127.738 88.4766 127.73 88.4275C127.721 88.3646 127.651 88.3498 127.455 88.3726C127.378 88.3818 127.339 88.3864 127.263 88.3966C127.257 88.3658 127.255 88.3498 127.249 88.3189C127.879 88.2047 128.197 88.1624 128.835 88.1064C128.837 88.1373 128.839 88.1533 128.842 88.1853C128.301 88.271 128.067 88.3349 127.218 89.1324C127.941 89.4786 128.284 89.6728 128.925 90.091C128.988 90.1321 129.048 90.1424 129.171 90.1367C129.173 90.1675 129.174 90.1835 129.176 90.2155C128.529 90.2658 128.205 90.3092 127.566 90.4268Z" fill="white" fill-opacity="0.1"/>
<path d="M131.014 90.1823C131.015 90.1503 131.016 90.1355 131.017 90.1035C131.08 90.1023 131.112 90.1023 131.175 90.1012C131.338 90.1001 131.403 90.0795 131.408 90.0109C131.412 89.9424 131.362 89.827 131.202 89.5699C130.744 89.5459 130.515 89.5425 130.058 89.5517C130.033 89.5951 130.021 89.6168 129.994 89.6602C129.936 89.7596 129.846 89.8944 129.848 89.9698C129.851 90.0521 129.96 90.0806 130.25 90.0909C130.25 90.1229 130.25 90.1378 130.252 90.1697C129.857 90.1732 129.66 90.1812 129.267 90.2097C129.264 90.1777 129.263 90.1629 129.261 90.1309C129.484 90.0898 129.551 90.0292 129.729 89.7253C130.145 89.0215 130.377 88.6754 130.891 88.0024C130.954 88.0047 130.985 88.0047 131.048 88.0082C131.519 88.6845 131.731 89.0307 132.108 89.7333C132.325 90.14 132.398 90.22 132.599 90.2497C132.595 90.2806 132.592 90.2966 132.588 90.3274C131.958 90.2372 131.643 90.2075 131.014 90.1823ZM130.624 88.6617C130.417 88.9644 130.319 89.1187 130.132 89.4271C130.53 89.4214 130.73 89.4237 131.13 89.4431C130.938 89.1278 130.836 88.9713 130.624 88.6617Z" fill="white" fill-opacity="0.1"/>
<path d="M136.527 89.2327C136.34 89.179 136.22 89.1744 136.122 89.2167C135.584 89.4441 135.325 89.5686 134.83 89.8359C134.769 90.0519 134.738 90.1593 134.678 90.3752C134.611 90.6117 134.664 90.6642 135.037 90.8048C135.028 90.8345 135.024 90.8493 135.013 90.8802C134.35 90.6711 134.014 90.5866 133.339 90.4552C133.344 90.4243 133.348 90.4083 133.353 90.3775C133.764 90.4346 133.826 90.3866 133.879 90.157C133.917 89.9902 133.936 89.9068 133.974 89.7388C133.697 89.2521 133.546 89.0122 133.222 88.5392C133.136 88.4158 132.981 88.3187 132.794 88.2856C132.798 88.2547 132.8 88.2387 132.805 88.2079C133.549 88.3119 133.92 88.3827 134.657 88.5678C134.649 88.5986 134.646 88.6135 134.638 88.6443C134.578 88.6318 134.548 88.626 134.488 88.6146C134.267 88.5712 134.187 88.5643 134.173 88.6352C134.167 88.6626 134.214 88.7609 134.262 88.8465C134.455 89.1916 134.545 89.3652 134.715 89.7148C134.999 89.5595 135.144 89.4852 135.44 89.3424C135.617 89.2556 135.736 89.1653 135.755 89.1059C135.783 89.0191 135.706 88.9631 135.34 88.8385C135.349 88.8088 135.354 88.7928 135.363 88.7631C135.843 88.9048 136.083 88.9848 136.556 89.163C136.543 89.1893 136.538 89.2041 136.527 89.2327Z" fill="white" fill-opacity="0.1"/>
<path d="M146.382 233.17C146.43 235.129 145.492 236.277 143.581 236.476C143.222 236.513 142.828 236.211 142.128 235.94C143.567 235.157 145.298 235.156 145.008 232.944C143.822 234.648 142.617 233.893 141.544 233.168C139.831 232.011 138.203 230.727 136.55 229.481C136.175 229.199 135.845 228.856 135.281 228.351C135.561 230.704 136.769 232.298 137.965 233.875C139.114 235.394 140.287 236.902 141.555 238.321C142.36 239.221 141.726 239.822 141.223 240.293C140.662 240.817 139.955 240.91 139.389 240.04C138.824 239.173 138.139 238.377 137.455 237.595C136.663 236.689 136.029 235.774 136.306 234.464C136.363 234.191 136.173 233.754 135.953 233.551C134.04 231.793 133.207 229.561 132.842 227.048C132.595 225.349 132.121 223.683 131.49 221.983C131.288 224.762 131.084 227.54 130.882 230.319C129.064 225.245 129.348 220.079 129.694 214.765C129.388 215.126 129.056 215.469 128.78 215.85C126.975 218.345 125.795 221.129 125.399 224.169C125.022 227.076 125.931 229.732 128.376 231.368C131.272 233.305 133.115 236.122 135.316 238.65C135.996 239.431 136.626 240.256 137.278 241.062C137.233 241.19 137.19 241.316 137.145 241.444C136.676 241.314 136.087 241.32 135.755 241.031C134.061 239.557 132.494 237.931 130.766 236.501C128.44 234.573 126.401 232.439 125.065 229.67C124.071 231.225 124.367 235.603 126.078 237.59C128.101 239.937 130.687 240.646 133.871 240.416C130.143 241.938 126.494 239.622 124.87 237.199C124.822 237.128 124.798 237.041 124.754 236.967C122.208 232.765 122.213 232.766 123.373 227.178C123.697 225.615 123.983 224.045 124.299 222.413C123.365 222.083 122.668 222.143 122.1 223.065C121.43 224.154 120.637 225.166 119.88 226.237C118.459 223.193 120.709 221.242 121.675 218.783C120.203 219.759 118.731 220.734 117.041 221.854C117.041 221.113 116.919 220.499 117.066 219.959C117.406 218.71 117.899 217.502 118.283 216.265C118.405 215.871 118.486 215.41 118.405 215.019C118.258 214.308 118.312 213.773 118.975 213.332C119.196 213.186 119.336 212.77 119.343 212.474C119.377 210.926 119.311 209.375 119.368 207.828C119.424 206.305 121.067 204.549 122.564 204.166C123.165 204.013 123.691 203.59 124.283 203.375C125.528 202.922 126.772 202.423 128.058 202.124C130.223 201.623 132.399 201.514 134.591 202.178C136.742 202.83 138.148 204.172 139.026 206.216C139.311 206.882 139.814 207.547 140.391 207.981C142.394 209.488 144.496 210.861 146.5 212.366C146.871 212.644 147.146 213.295 147.147 213.773C147.148 214.674 147.621 215.012 148.306 215.426C150.671 216.855 153.019 218.321 155.279 219.907C155.743 220.233 156.007 221.138 156 221.772C155.988 222.822 155.744 223.883 155.489 224.913C155.002 226.874 154.542 228.854 153.874 230.758C153.308 232.368 152.032 233.209 150.252 233.173C149.042 233.151 147.832 233.17 146.382 233.17ZM153.596 226.831C153.791 226.846 153.987 226.86 154.182 226.875C154.256 225.8 154.331 224.725 154.41 223.574C153.657 223.662 153.25 223.709 152.755 223.767C152.81 223.386 152.848 223.119 152.899 222.761C151.375 223.063 151.011 222.105 150.718 221.019C152.075 221.363 153.361 221.688 154.654 222.016C155.036 221.242 155.085 221.17 154.19 220.556C151.492 218.704 148.751 216.914 145.956 215.052C146.51 214.111 146.154 213.403 145.127 212.767C143.77 211.926 142.557 210.846 141.192 210.02C140.345 209.507 139.357 209.103 138.385 208.945C135.526 208.48 134.679 209.166 134.496 212.034C134.442 212.87 134.714 213.73 134.866 214.573C135.064 215.671 135.257 216.771 135.522 217.853C135.614 218.23 135.839 218.645 136.131 218.893C137.712 220.241 139.288 221.603 140.957 222.838C141.955 223.577 142.113 224.491 142.111 225.621C141.215 225.483 140.419 225.36 139.569 225.229C138.835 228.814 141.042 230.964 143.126 233.394C144.591 231.603 146.535 231.689 148.501 231.845C148.846 231.873 149.194 231.855 149.54 231.86C152.327 231.895 153.584 230.197 152.644 227.178C150.251 227.825 147.84 228.475 145.39 229.137C145.094 228.212 145.411 227.81 146.305 227.74C147.295 227.663 148.307 227.637 149.265 227.405C150.735 227.05 152.609 227.533 153.37 225.411C153.466 226.013 153.531 226.422 153.596 226.831ZM130.621 212.048C130.063 211.261 129.567 210.503 129.014 209.789C127.203 207.453 125.415 206.967 122.639 208.022C120.463 208.848 119.859 209.962 120.476 212.224C121.166 214.756 122.786 216.685 124.656 218.443C124.185 216.919 123.515 215.469 123.132 213.946C122.822 212.718 122.755 211.4 122.791 210.128C122.805 209.656 123.541 208.755 123.746 208.81C125.265 209.21 126.733 209.802 128.216 210.333C128.18 210.455 128.145 210.578 128.108 210.7C127.185 210.752 126.263 210.806 124.901 210.884C125.332 211.623 125.507 212.398 125.929 212.574C129.211 213.94 129.226 213.905 130.621 212.048ZM137.417 207.34C136.475 204.153 135.305 202.995 132.802 203.057C130.304 203.117 127.815 203.478 125.322 203.708C125.318 203.839 125.316 203.971 125.313 204.102C129.39 204.7 133.528 205.069 137.417 207.34ZM138.094 225.181C138.192 225.091 138.291 224.999 138.39 224.909C135.881 221.566 133.238 218.299 132.204 214.001C130.474 216.852 130.511 218.374 132.656 220.511C134.345 222.191 136.272 223.633 138.094 225.181ZM122.256 205.617C122.284 205.731 122.311 205.844 122.339 205.959C126.328 206.697 130.318 207.436 134.466 208.204C133.537 206.582 132.102 206.034 130.542 205.872C128.184 205.626 125.811 205.516 123.442 205.386C123.053 205.364 122.653 205.535 122.256 205.617ZM121.746 217.62C120.997 217.25 120.443 216.976 119.775 216.644C119.454 217.453 119.173 218.16 118.765 219.184C119.91 218.583 120.724 218.156 121.746 217.62ZM130.478 209.562C131.921 210.559 132.747 210.474 133.502 209.182C132.455 209.313 131.499 209.433 130.478 209.562ZM125.439 215.713C125.439 216.541 125.439 217.181 125.439 218.09C125.989 217.446 126.357 217.017 126.788 216.513C126.289 216.217 125.908 215.991 125.439 215.713Z" fill="white" fill-opacity="0.1"/>
<path d="M124.063 240.37C122.012 239.075 119.962 237.779 117.913 236.481C117.877 236.46 117.853 236.42 117.826 236.385C117.097 235.493 117.226 230.602 118.002 229.721C118.91 228.691 119.816 227.659 120.958 226.712C120.509 229.458 120.059 232.206 119.61 234.953C119.678 234.973 119.745 234.993 119.813 235.013C120.057 234.577 120.303 234.142 120.677 233.474C121.958 235.76 123.153 237.895 124.348 240.029C124.255 240.143 124.159 240.257 124.063 240.37Z" fill="white" fill-opacity="0.1"/>
<path d="M116.075 219.999C115.215 221.987 114.354 223.974 113.493 225.961C113.519 225.991 113.544 226.022 113.569 226.052C114.044 225.463 114.518 224.875 114.994 224.285C115.078 224.307 115.163 224.33 115.246 224.352C115.018 227.755 114.789 231.159 114.561 234.562C114.442 234.615 114.322 234.668 114.203 234.721C113.584 233.831 112.816 233.008 112.37 232.038C110.49 227.946 110.49 227.909 112.712 223.987C113.552 222.504 114.594 221.137 115.544 219.715C115.722 219.811 115.9 219.905 116.075 219.999Z" fill="white" fill-opacity="0.1"/>
<path d="M115.126 213.354C115.696 213.393 116.074 213.418 116.585 213.452C115.327 215.612 114.128 217.672 112.928 219.73C112.811 219.706 112.695 219.681 112.578 219.657C112.496 217.523 112.395 215.389 112.351 213.254C112.345 212.966 112.545 212.59 112.771 212.393C114.177 211.176 115.606 209.985 117.056 208.822C117.281 208.641 117.656 208.646 117.961 208.564C118.019 208.895 118.07 209.229 118.138 209.559C118.571 211.681 117.307 212.529 115.553 213.019C115.443 213.051 115.357 213.169 115.126 213.354Z" fill="white" fill-opacity="0.1"/>
<path d="M115.93 228.571C116.035 227.129 115.89 225.588 116.334 224.24C116.636 223.317 117.757 222.661 118.684 221.709C117.685 224.196 116.806 226.39 115.93 228.571Z" fill="white" fill-opacity="0.1"/>
<path d="M141.088 216.327C141.895 216.242 142.701 216.157 143.495 216.073C144.021 216.544 144.556 217.024 145.248 217.643C143.709 217.291 142.343 216.979 140.976 216.667C141.013 216.554 141.05 216.44 141.088 216.327Z" fill="white" fill-opacity="0.1"/>
<path d="M143.262 213.169C143.738 213.82 144.127 214.356 144.517 214.891C143.951 215.127 143.384 215.363 142.97 215.536C143.065 214.771 143.14 214.161 143.262 213.169Z" fill="white" fill-opacity="0.1"/>
<path d="M137.103 192.632C137.958 192.321 138.46 191.314 138.242 190.262C138.007 189.122 137.015 188.363 136.027 188.568C135.04 188.772 134.43 189.862 134.666 191.002C134.74 191.362 134.891 191.684 135.092 191.951L133.023 193.007L130.424 190.641C130.847 190.172 131.046 189.461 130.894 188.728C130.658 187.587 129.667 186.829 128.678 187.033C127.691 187.238 127.081 188.328 127.318 189.468C127.42 189.965 127.667 190.39 127.994 190.694L125.591 193.298L122.384 191.875C122.573 191.462 122.636 190.965 122.531 190.457C122.295 189.317 121.303 188.559 120.315 188.763C119.328 188.968 118.718 190.057 118.955 191.198C119.105 191.929 119.569 192.502 120.142 192.766L118.766 196.061L116.494 196.172C116.596 195.822 116.619 195.432 116.537 195.034C116.302 193.894 115.31 193.135 114.322 193.34C113.335 193.544 112.725 194.634 112.961 195.775C113.19 196.879 114.129 197.624 115.085 197.483L117.858 201.621C117.858 201.621 126.045 193.596 136.662 197.982L137.103 192.632ZM135.454 195.818C134.292 195.469 125.888 193.263 117.821 199.524L117.943 199.721L116.342 197.397L119.476 197.245L121.309 192.855C121.385 192.833 121.458 192.806 121.527 192.773L125.883 194.704L129.122 191.192C129.203 191.197 129.284 191.195 129.365 191.187L132.916 194.42L135.966 192.861L135.454 195.818Z" fill="white" fill-opacity="0.1"/>
<path d="M122.218 202.495C122.2 202.468 122.192 202.455 122.176 202.427C122.481 202.212 122.516 202.131 122.422 201.971C122.108 201.431 121.95 201.161 121.636 200.621C121.537 201.56 121.519 202.026 121.543 202.938C121.499 202.969 121.477 202.984 121.434 203.014C120.592 202.693 120.151 202.559 119.236 202.35C119.611 202.799 119.8 203.022 120.177 203.471C120.331 203.655 120.447 203.642 120.783 203.402C120.802 203.427 120.812 203.439 120.832 203.463C120.464 203.752 120.283 203.904 119.935 204.223C119.913 204.2 119.903 204.188 119.881 204.165C120.156 203.879 120.188 203.815 120.055 203.661C119.669 203.213 119.477 202.989 119.091 202.543C118.98 202.413 118.879 202.435 118.558 202.704C118.536 202.681 118.526 202.668 118.506 202.645C118.935 202.254 119.157 202.067 119.611 201.715C120.334 201.91 120.683 202.024 121.357 202.287C121.369 201.561 121.393 201.193 121.482 200.452C121.97 200.166 122.219 200.034 122.726 199.789C122.74 199.818 122.746 199.831 122.76 199.86C122.401 200.051 122.355 200.14 122.463 200.35C122.711 200.829 122.834 201.069 123.082 201.547C123.189 201.752 123.253 201.787 123.617 201.635C123.631 201.664 123.638 201.678 123.651 201.706C123.063 201.991 122.776 202.148 122.218 202.495Z" fill="white" fill-opacity="0.1"/>
<path d="M123.84 201.617C123.826 201.589 123.82 201.575 123.807 201.546C124.132 201.371 124.201 201.304 124.123 201.125C123.889 200.581 123.771 200.309 123.537 199.765C123.467 199.603 123.342 199.604 122.973 199.76C122.959 199.731 122.953 199.717 122.94 199.689C123.647 199.359 124.009 199.215 124.745 198.966C124.755 198.995 124.76 199.01 124.77 199.04C124.386 199.179 124.296 199.272 124.357 199.436C124.563 199.992 124.667 200.269 124.873 200.824C124.944 201.016 125.043 201.012 125.401 200.908C125.411 200.938 125.415 200.952 125.426 200.982C124.78 201.2 124.463 201.327 123.84 201.617Z" fill="white" fill-opacity="0.1"/>
<path d="M127.566 200.427C127.56 200.396 127.556 200.38 127.551 200.349C127.863 200.285 127.917 200.26 127.912 200.22C127.906 200.186 127.873 200.16 127.767 200.1C127.366 199.88 127.158 199.776 126.729 199.583C126.681 199.626 126.658 199.648 126.61 199.691C126.668 199.931 126.695 200.052 126.752 200.292C126.787 200.442 126.867 200.459 127.218 200.414C127.225 200.445 127.227 200.461 127.234 200.492C126.593 200.624 126.277 200.708 125.653 200.908C125.644 200.878 125.638 200.863 125.629 200.832C125.967 200.701 126.02 200.651 125.969 200.478C125.804 199.907 125.72 199.621 125.555 199.05C125.5 198.863 125.394 198.85 125.027 198.954C125.018 198.924 125.012 198.91 125.003 198.879C125.715 198.65 126.077 198.555 126.808 198.405C126.815 198.435 126.817 198.451 126.824 198.482C126.428 198.581 126.367 198.658 126.412 198.844C126.476 199.118 126.509 199.255 126.573 199.528C126.941 199.162 127.135 198.985 127.544 198.642C127.693 198.518 127.738 198.477 127.73 198.427C127.721 198.365 127.651 198.35 127.455 198.373C127.378 198.382 127.339 198.386 127.263 198.397C127.257 198.366 127.255 198.35 127.249 198.319C127.879 198.205 128.197 198.162 128.835 198.106C128.837 198.137 128.839 198.153 128.842 198.185C128.301 198.271 128.067 198.335 127.218 199.132C127.941 199.479 128.284 199.673 128.925 200.091C128.988 200.132 129.048 200.142 129.171 200.137C129.173 200.168 129.174 200.183 129.176 200.215C128.529 200.266 128.205 200.309 127.566 200.427Z" fill="white" fill-opacity="0.1"/>
<path d="M131.014 200.182C131.015 200.15 131.016 200.135 131.017 200.103C131.08 200.102 131.112 200.102 131.175 200.101C131.338 200.1 131.403 200.079 131.408 200.011C131.412 199.942 131.362 199.827 131.202 199.57C130.744 199.546 130.515 199.543 130.058 199.552C130.033 199.595 130.021 199.617 129.994 199.66C129.936 199.76 129.846 199.894 129.848 199.97C129.851 200.052 129.96 200.081 130.25 200.091C130.25 200.123 130.25 200.138 130.252 200.17C129.857 200.173 129.66 200.181 129.267 200.21C129.264 200.178 129.263 200.163 129.261 200.131C129.484 200.09 129.551 200.029 129.729 199.725C130.145 199.022 130.377 198.675 130.891 198.002C130.954 198.005 130.985 198.005 131.048 198.008C131.519 198.685 131.731 199.031 132.108 199.733C132.325 200.14 132.398 200.22 132.599 200.25C132.595 200.281 132.592 200.297 132.588 200.327C131.958 200.237 131.643 200.207 131.014 200.182ZM130.624 198.662C130.417 198.964 130.319 199.119 130.132 199.427C130.53 199.421 130.73 199.424 131.13 199.443C130.938 199.128 130.836 198.971 130.624 198.662Z" fill="white" fill-opacity="0.1"/>
<path d="M136.527 199.233C136.34 199.179 136.22 199.174 136.122 199.217C135.584 199.444 135.325 199.569 134.83 199.836C134.769 200.052 134.738 200.159 134.678 200.375C134.611 200.612 134.664 200.664 135.037 200.805C135.028 200.834 135.024 200.849 135.013 200.88C134.35 200.671 134.014 200.587 133.339 200.455C133.344 200.424 133.348 200.408 133.353 200.377C133.764 200.435 133.826 200.387 133.879 200.157C133.917 199.99 133.936 199.907 133.974 199.739C133.697 199.252 133.546 199.012 133.222 198.539C133.136 198.416 132.981 198.319 132.794 198.286C132.798 198.255 132.8 198.239 132.805 198.208C133.549 198.312 133.92 198.383 134.657 198.568C134.649 198.599 134.646 198.613 134.638 198.644C134.578 198.632 134.548 198.626 134.488 198.615C134.267 198.571 134.187 198.564 134.173 198.635C134.167 198.663 134.214 198.761 134.262 198.847C134.455 199.192 134.545 199.365 134.715 199.715C134.999 199.559 135.144 199.485 135.44 199.342C135.617 199.256 135.736 199.165 135.755 199.106C135.783 199.019 135.706 198.963 135.34 198.839C135.349 198.809 135.354 198.793 135.363 198.763C135.843 198.905 136.083 198.985 136.556 199.163C136.543 199.189 136.538 199.204 136.527 199.233Z" fill="white" fill-opacity="0.1"/>
<path d="M223.382 68.1705C223.43 70.1287 222.492 71.2769 220.581 71.4757C220.222 71.5134 219.828 71.2106 219.128 70.9399C220.567 70.1573 222.298 70.1561 222.008 67.9443C220.822 69.6477 219.617 68.8925 218.544 68.1682C216.831 67.0108 215.203 65.7267 213.55 64.4814C213.175 64.1992 212.845 63.8564 212.281 63.3514C212.561 65.7038 213.769 67.2976 214.965 68.8754C216.114 70.3938 217.287 71.9018 218.555 73.3208C219.36 74.2211 218.726 74.8221 218.223 75.2928C217.662 75.8172 216.955 75.9097 216.389 75.0403C215.824 74.1731 215.139 73.3768 214.455 72.5953C213.663 71.6893 213.029 70.7742 213.306 69.4638C213.363 69.1907 213.173 68.7543 212.953 68.5509C211.04 66.7926 210.207 64.5613 209.842 62.0479C209.595 60.349 209.121 58.6832 208.49 56.9832C208.288 59.7617 208.084 62.5403 207.882 65.3188C206.064 60.245 206.348 55.0786 206.694 49.7649C206.388 50.1259 206.056 50.4687 205.78 50.8503C203.975 53.3455 202.795 56.1286 202.399 59.1688C202.022 62.0764 202.931 64.7316 205.376 66.3676C208.272 68.3053 210.115 71.1215 212.316 73.6499C212.996 74.4313 213.626 75.2562 214.278 76.0617C214.233 76.1896 214.19 76.3164 214.145 76.4444C213.676 76.3142 213.087 76.3199 212.755 76.0308C211.061 74.557 209.494 72.9312 207.766 71.5008C205.44 69.5734 203.401 67.4393 202.065 64.6699C201.071 66.2248 201.367 70.6028 203.078 72.5896C205.101 74.9374 207.687 75.6458 210.871 75.4162C207.143 76.938 203.494 74.6221 201.87 72.1989C201.822 72.1281 201.798 72.0412 201.754 71.967C199.208 67.7649 199.213 67.766 200.373 62.1781C200.697 60.6152 200.983 59.0454 201.299 57.4128C200.365 57.0826 199.668 57.1431 199.1 58.0651C198.43 59.1539 197.637 60.1662 196.88 61.2367C195.459 58.1931 197.709 56.2417 198.675 53.7831C197.203 54.7588 195.731 55.7344 194.041 56.8541C194.041 56.1126 193.919 55.4991 194.066 54.9587C194.406 53.7099 194.899 52.5023 195.283 51.265C195.405 50.8708 195.486 50.4104 195.405 50.0186C195.258 49.3079 195.312 48.7732 195.975 48.3322C196.196 48.186 196.336 47.7701 196.343 47.4742C196.377 45.9261 196.311 44.3746 196.368 42.8277C196.424 41.3048 198.067 39.5488 199.564 39.166C200.165 39.0129 200.691 38.5902 201.283 38.3754C202.528 37.9218 203.772 37.4226 205.058 37.1244C207.223 36.6228 209.399 36.5143 211.591 37.1781C213.742 37.8304 215.148 39.1717 216.026 41.2156C216.311 41.8817 216.814 42.5467 217.391 42.9808C219.394 44.4877 221.496 45.861 223.5 47.3657C223.871 47.6445 224.146 48.2945 224.147 48.7732C224.148 49.6735 224.621 50.0117 225.306 50.4264C227.671 51.8545 230.019 53.3215 232.279 54.9073C232.743 55.2329 233.007 56.1377 233 56.7718C232.988 57.8218 232.744 58.8831 232.489 59.9125C232.002 61.8742 231.542 63.8541 230.874 65.7575C230.308 67.3684 229.032 68.2093 227.252 68.1728C226.042 68.151 224.832 68.1705 223.382 68.1705ZM230.596 61.8308C230.791 61.8456 230.987 61.8605 231.182 61.8753C231.256 60.8002 231.331 59.7252 231.41 58.5735C230.657 58.6615 230.25 58.7095 229.755 58.7666C229.81 58.3862 229.848 58.1188 229.899 57.7612C228.375 58.0628 228.011 57.1054 227.718 56.0189C229.075 56.3628 230.361 56.6884 231.654 57.0163C232.036 56.2417 232.085 56.1697 231.19 55.5562C228.492 53.7042 225.751 51.9139 222.956 50.0517C223.51 49.1114 223.154 48.4031 222.127 47.7667C220.77 46.9258 219.557 45.8462 218.192 45.0201C217.345 44.5072 216.357 44.1027 215.385 43.9451C212.526 43.4801 211.679 44.1656 211.496 47.0344C211.442 47.8695 211.714 48.7298 211.866 49.573C212.064 50.6709 212.257 51.7711 212.522 52.8531C212.614 53.2301 212.839 53.6448 213.131 53.8927C214.712 55.2409 216.288 56.6027 217.957 57.8378C218.955 58.577 219.113 59.491 219.111 60.6209C218.215 60.4826 217.419 60.3604 216.569 60.229C215.835 63.8141 218.042 65.9643 220.126 68.3944C221.591 66.603 223.535 66.6887 225.501 66.8452C225.846 66.8726 226.194 66.8555 226.54 66.86C229.327 66.8954 230.584 65.1966 229.644 62.1781C227.251 62.8247 224.84 63.4748 222.39 64.1375C222.094 63.2121 222.411 62.8099 223.305 62.7402C224.295 62.6625 225.307 62.6374 226.265 62.4055C227.735 62.0501 229.609 62.5334 230.37 60.4107C230.466 61.0128 230.531 61.4218 230.596 61.8308ZM207.621 47.0481C207.063 46.2609 206.567 45.5034 206.014 44.7894C204.203 42.453 202.415 41.9674 199.639 43.0219C197.463 43.848 196.859 44.9619 197.476 47.224C198.166 49.7558 199.786 51.6854 201.656 53.4426C201.185 51.9185 200.515 50.4687 200.132 48.9458C199.822 47.7176 199.755 46.4003 199.791 45.1275C199.805 44.6557 200.541 43.7554 200.746 43.8102C202.265 44.2101 203.733 44.8019 205.216 45.3332C205.18 45.4554 205.145 45.5777 205.108 45.6999C204.185 45.7525 203.263 45.8062 201.901 45.8839C202.332 46.6231 202.507 47.3977 202.929 47.5736C206.211 48.94 206.226 48.9046 207.621 47.0481ZM214.417 42.3399C213.475 39.1535 212.305 37.995 209.802 38.0567C207.304 38.1172 204.815 38.4782 202.322 38.7079C202.318 38.8393 202.316 38.9707 202.313 39.102C206.39 39.6996 210.528 40.0686 214.417 42.3399ZM215.094 60.181C215.192 60.0908 215.291 59.9994 215.39 59.9091C212.881 56.5662 210.238 53.2986 209.204 49.0006C207.474 51.8523 207.511 53.3741 209.656 55.5105C211.345 57.1911 213.272 58.6329 215.094 60.181ZM199.256 40.617C199.284 40.7312 199.311 40.8443 199.339 40.9586C203.328 41.6966 207.318 42.4358 211.466 43.2036C210.537 41.5824 209.102 41.034 207.542 40.8718C205.184 40.6261 202.811 40.5164 200.442 40.3862C200.053 40.3645 199.653 40.5347 199.256 40.617ZM198.746 52.62C197.997 52.2498 197.443 51.9756 196.775 51.6443C196.454 52.4532 196.173 53.1604 195.765 54.1841C196.91 53.5831 197.724 53.1558 198.746 52.62ZM207.478 44.562C208.921 45.5594 209.747 45.4737 210.502 44.1816C209.455 44.3129 208.499 44.4329 207.478 44.562ZM202.439 50.7132C202.439 51.5415 202.439 52.1813 202.439 53.0896C202.989 52.4463 203.357 52.0168 203.788 51.5129C203.289 51.217 202.908 50.9908 202.439 50.7132Z" fill="white" fill-opacity="0.1"/>
<path d="M201.063 75.3704C199.012 74.0748 196.962 72.7792 194.913 71.4814C194.877 71.4597 194.853 71.4197 194.826 71.3854C194.097 70.4931 194.226 65.6021 195.002 64.7212C195.91 63.6907 196.816 62.659 197.958 61.7119C197.509 64.4585 197.059 67.2062 196.61 69.9527C196.678 69.9733 196.745 69.9927 196.813 70.0133C197.057 69.5768 197.303 69.1415 197.677 68.4743C198.958 70.7605 200.153 72.8946 201.348 75.0288C201.255 75.1431 201.159 75.2573 201.063 75.3704Z" fill="white" fill-opacity="0.1"/>
<path d="M193.075 54.9988C192.215 56.9867 191.354 58.9735 190.493 60.9615C190.519 60.9912 190.544 61.022 190.569 61.0517C191.044 60.4633 191.518 59.8749 191.994 59.2854C192.078 59.3071 192.163 59.33 192.246 59.3517C192.018 62.7552 191.789 66.1587 191.561 69.5621C191.442 69.6147 191.322 69.6684 191.203 69.7209C190.584 68.8309 189.816 68.0083 189.37 67.0384C187.49 62.946 187.49 62.9094 189.712 58.9872C190.552 57.5043 191.594 56.1367 192.544 54.7155C192.722 54.8114 192.9 54.9051 193.075 54.9988Z" fill="white" fill-opacity="0.1"/>
<path d="M192.126 48.3541C192.696 48.3929 193.074 48.418 193.585 48.4523C192.327 50.6116 191.128 52.6715 189.928 54.7303C189.811 54.7063 189.695 54.6812 189.578 54.6572C189.496 52.523 189.395 50.3888 189.351 48.2535C189.345 47.9656 189.545 47.5897 189.771 47.3932C191.177 46.1765 192.606 44.9849 194.056 43.8218C194.281 43.6413 194.656 43.6459 194.961 43.5636C195.019 43.8949 195.07 44.2285 195.138 44.5587C195.571 46.6815 194.307 47.5292 192.553 48.0193C192.443 48.0513 192.357 48.169 192.126 48.3541Z" fill="white" fill-opacity="0.1"/>
<path d="M192.93 63.5709C193.035 62.1291 192.89 60.5879 193.334 59.2397C193.636 58.3166 194.757 57.6608 195.684 56.7091C194.685 59.1963 193.806 61.3899 192.93 63.5709Z" fill="white" fill-opacity="0.1"/>
<path d="M218.088 51.3268C218.895 51.2422 219.701 51.1565 220.495 51.0731C221.021 51.5438 221.556 52.0237 222.248 52.6429C220.709 52.291 219.343 51.9791 217.976 51.6672C218.013 51.5541 218.05 51.4399 218.088 51.3268Z" fill="white" fill-opacity="0.1"/>
<path d="M220.262 48.1691C220.738 48.8203 221.127 49.3561 221.517 49.8908C220.951 50.1273 220.384 50.3627 219.97 50.5363C220.065 49.7708 220.14 49.1608 220.262 48.1691Z" fill="white" fill-opacity="0.1"/>
<path d="M214.103 27.6315C214.958 27.3208 215.46 26.3142 215.242 25.262C215.007 24.1218 214.015 23.3632 213.027 23.5677C212.04 23.7722 211.43 24.8621 211.666 26.0023C211.74 26.3622 211.891 26.6844 212.092 26.9506L210.023 28.0074L207.424 25.6413C207.847 25.1717 208.046 24.4611 207.894 23.7276C207.658 22.5874 206.667 21.8288 205.678 22.0333C204.691 22.2378 204.081 23.3277 204.318 24.468C204.42 24.9649 204.667 25.3899 204.994 25.6938L202.591 28.2976L199.384 26.8752C199.573 26.4616 199.636 25.9646 199.531 25.4573C199.295 24.3171 198.303 23.5585 197.315 23.763C196.328 23.9675 195.718 25.0575 195.955 26.1977C196.105 26.9289 196.569 27.5024 197.142 27.7663L195.766 31.0613L193.494 31.1721C193.596 30.8225 193.619 30.4318 193.537 30.0342C193.302 28.894 192.31 28.1353 191.322 28.3399C190.335 28.5444 189.725 29.6343 189.961 30.7745C190.19 31.8793 191.129 32.6242 192.085 32.4825L194.858 36.6206C194.858 36.6206 203.045 28.5958 213.662 32.9818L214.103 27.6315ZM212.454 30.8179C211.292 30.4695 202.888 28.2633 194.821 34.5242L194.943 34.7207L193.342 32.3968L196.476 32.2449L198.309 27.8554C198.385 27.8326 198.458 27.8063 198.527 27.7732L202.883 29.704L206.122 26.192C206.203 26.1965 206.284 26.1954 206.365 26.1874L209.916 29.4195L212.966 27.8612L212.454 30.8179Z" fill="white" fill-opacity="0.1"/>
<path d="M199.218 37.4946C199.2 37.4683 199.192 37.4546 199.176 37.4272C199.481 37.2124 199.516 37.1313 199.422 36.9713C199.108 36.4309 198.95 36.1613 198.636 35.6209C198.537 36.56 198.519 37.0262 198.543 37.9379C198.499 37.9687 198.477 37.9836 198.434 38.0144C197.592 37.6934 197.151 37.5586 196.236 37.3495C196.611 37.7985 196.8 38.0224 197.177 38.4714C197.331 38.6554 197.447 38.6417 197.783 38.4017C197.802 38.4269 197.812 38.4394 197.832 38.4634C197.464 38.7525 197.283 38.9044 196.935 39.2232C196.913 39.2003 196.903 39.1878 196.881 39.1649C197.156 38.8793 197.188 38.8153 197.055 38.6611C196.669 38.2132 196.477 37.9893 196.091 37.5426C195.98 37.4135 195.879 37.4352 195.558 37.7037C195.536 37.6808 195.526 37.6683 195.506 37.6454C195.935 37.2535 196.157 37.0673 196.611 36.7154C197.334 36.9096 197.683 37.0239 198.357 37.2867C198.369 36.5612 198.393 36.1933 198.482 35.4518C198.97 35.1662 199.219 35.0337 199.726 34.7892C199.74 34.8177 199.746 34.8315 199.76 34.86C199.401 35.0508 199.355 35.1399 199.463 35.3501C199.711 35.8289 199.834 36.0688 200.082 36.5475C200.189 36.752 200.253 36.7874 200.617 36.6355C200.631 36.664 200.638 36.6777 200.651 36.7063C200.063 36.9908 199.776 37.1484 199.218 37.4946Z" fill="white" fill-opacity="0.1"/>
<path d="M200.84 36.6173C200.826 36.5887 200.82 36.575 200.807 36.5465C201.132 36.3705 201.201 36.3043 201.123 36.1249C200.889 35.5811 200.771 35.3091 200.537 34.7653C200.467 34.6031 200.342 34.6042 199.973 34.7596C199.959 34.731 199.953 34.7173 199.94 34.6888C200.647 34.3586 201.009 34.2146 201.745 33.9656C201.755 33.9953 201.76 34.0101 201.77 34.0398C201.386 34.1792 201.296 34.2718 201.357 34.4363C201.563 34.9915 201.667 35.2692 201.873 35.8244C201.944 36.0163 202.043 36.0118 202.401 35.9078C202.411 35.9375 202.415 35.9524 202.426 35.9821C201.78 36.2003 201.463 36.3271 200.84 36.6173Z" fill="white" fill-opacity="0.1"/>
<path d="M204.566 35.4268C204.56 35.396 204.556 35.38 204.551 35.3492C204.863 35.2852 204.917 35.26 204.912 35.2201C204.906 35.1858 204.873 35.1595 204.767 35.1001C204.366 34.8796 204.158 34.7756 203.729 34.5825C203.681 34.626 203.658 34.6477 203.61 34.6911C203.668 34.931 203.695 35.0521 203.752 35.292C203.787 35.4417 203.867 35.4588 204.218 35.4143C204.225 35.4451 204.227 35.4611 204.234 35.492C203.593 35.6245 203.277 35.7079 202.653 35.9078C202.644 35.8781 202.638 35.8633 202.629 35.8324C202.967 35.701 203.02 35.6508 202.969 35.4783C202.804 34.907 202.72 34.6214 202.555 34.0501C202.5 33.8628 202.394 33.8502 202.027 33.9542C202.018 33.9245 202.012 33.9096 202.003 33.8788C202.715 33.6503 203.077 33.5554 203.808 33.4046C203.815 33.4355 203.817 33.4515 203.824 33.4823C203.428 33.5806 203.367 33.6583 203.412 33.8445C203.476 34.1176 203.509 34.2547 203.573 34.5277C203.941 34.1621 204.135 33.985 204.544 33.6423C204.693 33.5177 204.738 33.4766 204.73 33.4275C204.721 33.3646 204.651 33.3498 204.455 33.3726C204.378 33.3818 204.339 33.3864 204.263 33.3966C204.257 33.3658 204.255 33.3498 204.249 33.3189C204.879 33.2047 205.197 33.1624 205.835 33.1064C205.837 33.1373 205.839 33.1533 205.842 33.1853C205.301 33.271 205.067 33.3349 204.218 34.1324C204.941 34.4786 205.284 34.6728 205.925 35.091C205.988 35.1321 206.048 35.1424 206.171 35.1367C206.173 35.1675 206.174 35.1835 206.176 35.2155C205.529 35.2658 205.205 35.3092 204.566 35.4268Z" fill="white" fill-opacity="0.1"/>
<path d="M208.014 35.1823C208.015 35.1503 208.016 35.1355 208.017 35.1035C208.08 35.1023 208.112 35.1023 208.175 35.1012C208.338 35.1001 208.403 35.0795 208.408 35.0109C208.412 34.9424 208.362 34.827 208.202 34.5699C207.744 34.5459 207.515 34.5425 207.058 34.5517C207.033 34.5951 207.021 34.6168 206.994 34.6602C206.936 34.7596 206.846 34.8944 206.848 34.9698C206.851 35.0521 206.96 35.0806 207.25 35.0909C207.25 35.1229 207.25 35.1378 207.252 35.1697C206.857 35.1732 206.66 35.1812 206.267 35.2097C206.264 35.1777 206.263 35.1629 206.261 35.1309C206.484 35.0898 206.551 35.0292 206.729 34.7253C207.145 34.0215 207.377 33.6754 207.891 33.0024C207.954 33.0047 207.985 33.0047 208.048 33.0082C208.519 33.6845 208.731 34.0307 209.108 34.7333C209.325 35.14 209.398 35.22 209.599 35.2497C209.595 35.2806 209.592 35.2966 209.588 35.3274C208.958 35.2372 208.643 35.2075 208.014 35.1823ZM207.624 33.6617C207.417 33.9644 207.319 34.1187 207.132 34.4271C207.53 34.4214 207.73 34.4237 208.13 34.4431C207.938 34.1278 207.836 33.9713 207.624 33.6617Z" fill="white" fill-opacity="0.1"/>
<path d="M213.527 34.2327C213.34 34.179 213.22 34.1744 213.122 34.2167C212.584 34.4441 212.325 34.5686 211.83 34.8359C211.769 35.0519 211.738 35.1593 211.678 35.3752C211.611 35.6117 211.664 35.6642 212.037 35.8048C212.028 35.8345 212.024 35.8493 212.013 35.8802C211.35 35.6711 211.014 35.5866 210.339 35.4552C210.344 35.4243 210.348 35.4083 210.353 35.3775C210.764 35.4346 210.826 35.3866 210.879 35.157C210.917 34.9902 210.936 34.9068 210.974 34.7388C210.697 34.2521 210.546 34.0122 210.222 33.5392C210.136 33.4158 209.981 33.3187 209.794 33.2856C209.798 33.2547 209.8 33.2387 209.805 33.2079C210.549 33.3119 210.92 33.3827 211.657 33.5678C211.649 33.5986 211.646 33.6135 211.638 33.6443C211.578 33.6318 211.548 33.626 211.488 33.6146C211.267 33.5712 211.187 33.5643 211.173 33.6352C211.167 33.6626 211.214 33.7609 211.262 33.8465C211.455 34.1916 211.545 34.3652 211.715 34.7148C211.999 34.5595 212.144 34.4852 212.44 34.3424C212.617 34.2556 212.736 34.1653 212.755 34.1059C212.783 34.0191 212.706 33.9631 212.34 33.8385C212.349 33.8088 212.354 33.7928 212.363 33.7631C212.843 33.9048 213.083 33.9848 213.556 34.163C213.543 34.1893 213.538 34.2041 213.527 34.2327Z" fill="white" fill-opacity="0.1"/>
<path d="M223.382 179.17C223.43 181.129 222.492 182.277 220.581 182.476C220.222 182.513 219.828 182.211 219.128 181.94C220.567 181.157 222.298 181.156 222.008 178.944C220.822 180.648 219.617 179.893 218.544 179.168C216.831 178.011 215.203 176.727 213.55 175.481C213.175 175.199 212.845 174.856 212.281 174.351C212.561 176.704 213.769 178.298 214.965 179.875C216.114 181.394 217.287 182.902 218.555 184.321C219.36 185.221 218.726 185.822 218.223 186.293C217.662 186.817 216.955 186.91 216.389 186.04C215.824 185.173 215.139 184.377 214.455 183.595C213.663 182.689 213.029 181.774 213.306 180.464C213.363 180.191 213.173 179.754 212.953 179.551C211.04 177.793 210.207 175.561 209.842 173.048C209.595 171.349 209.121 169.683 208.49 167.983C208.288 170.762 208.084 173.54 207.882 176.319C206.064 171.245 206.348 166.079 206.694 160.765C206.388 161.126 206.056 161.469 205.78 161.85C203.975 164.345 202.795 167.129 202.399 170.169C202.022 173.076 202.931 175.732 205.376 177.368C208.272 179.305 210.115 182.122 212.316 184.65C212.996 185.431 213.626 186.256 214.278 187.062C214.233 187.19 214.19 187.316 214.145 187.444C213.676 187.314 213.087 187.32 212.755 187.031C211.061 185.557 209.494 183.931 207.766 182.501C205.44 180.573 203.401 178.439 202.065 175.67C201.071 177.225 201.367 181.603 203.078 183.59C205.101 185.937 207.687 186.646 210.871 186.416C207.143 187.938 203.494 185.622 201.87 183.199C201.822 183.128 201.798 183.041 201.754 182.967C199.208 178.765 199.213 178.766 200.373 173.178C200.697 171.615 200.983 170.045 201.299 168.413C200.365 168.083 199.668 168.143 199.1 169.065C198.43 170.154 197.637 171.166 196.88 172.237C195.459 169.193 197.709 167.242 198.675 164.783C197.203 165.759 195.731 166.734 194.041 167.854C194.041 167.113 193.919 166.499 194.066 165.959C194.406 164.71 194.899 163.502 195.283 162.265C195.405 161.871 195.486 161.41 195.405 161.019C195.258 160.308 195.312 159.773 195.975 159.332C196.196 159.186 196.336 158.77 196.343 158.474C196.377 156.926 196.311 155.375 196.368 153.828C196.424 152.305 198.067 150.549 199.564 150.166C200.165 150.013 200.691 149.59 201.283 149.375C202.528 148.922 203.772 148.423 205.058 148.124C207.223 147.623 209.399 147.514 211.591 148.178C213.742 148.83 215.148 150.172 216.026 152.216C216.311 152.882 216.814 153.547 217.391 153.981C219.394 155.488 221.496 156.861 223.5 158.366C223.871 158.644 224.146 159.295 224.147 159.773C224.148 160.674 224.621 161.012 225.306 161.426C227.671 162.855 230.019 164.321 232.279 165.907C232.743 166.233 233.007 167.138 233 167.772C232.988 168.822 232.744 169.883 232.489 170.913C232.002 172.874 231.542 174.854 230.874 176.758C230.308 178.368 229.032 179.209 227.252 179.173C226.042 179.151 224.832 179.17 223.382 179.17ZM230.596 172.831C230.791 172.846 230.987 172.86 231.182 172.875C231.256 171.8 231.331 170.725 231.41 169.574C230.657 169.662 230.25 169.709 229.755 169.767C229.81 169.386 229.848 169.119 229.899 168.761C228.375 169.063 228.011 168.105 227.718 167.019C229.075 167.363 230.361 167.688 231.654 168.016C232.036 167.242 232.085 167.17 231.19 166.556C228.492 164.704 225.751 162.914 222.956 161.052C223.51 160.111 223.154 159.403 222.127 158.767C220.77 157.926 219.557 156.846 218.192 156.02C217.345 155.507 216.357 155.103 215.385 154.945C212.526 154.48 211.679 155.166 211.496 158.034C211.442 158.87 211.714 159.73 211.866 160.573C212.064 161.671 212.257 162.771 212.522 163.853C212.614 164.23 212.839 164.645 213.131 164.893C214.712 166.241 216.288 167.603 217.957 168.838C218.955 169.577 219.113 170.491 219.111 171.621C218.215 171.483 217.419 171.36 216.569 171.229C215.835 174.814 218.042 176.964 220.126 179.394C221.591 177.603 223.535 177.689 225.501 177.845C225.846 177.873 226.194 177.855 226.54 177.86C229.327 177.895 230.584 176.197 229.644 173.178C227.251 173.825 224.84 174.475 222.39 175.137C222.094 174.212 222.411 173.81 223.305 173.74C224.295 173.663 225.307 173.637 226.265 173.405C227.735 173.05 229.609 173.533 230.37 171.411C230.466 172.013 230.531 172.422 230.596 172.831ZM207.621 158.048C207.063 157.261 206.567 156.503 206.014 155.789C204.203 153.453 202.415 152.967 199.639 154.022C197.463 154.848 196.859 155.962 197.476 158.224C198.166 160.756 199.786 162.685 201.656 164.443C201.185 162.919 200.515 161.469 200.132 159.946C199.822 158.718 199.755 157.4 199.791 156.128C199.805 155.656 200.541 154.755 200.746 154.81C202.265 155.21 203.733 155.802 205.216 156.333C205.18 156.455 205.145 156.578 205.108 156.7C204.185 156.752 203.263 156.806 201.901 156.884C202.332 157.623 202.507 158.398 202.929 158.574C206.211 159.94 206.226 159.905 207.621 158.048ZM214.417 153.34C213.475 150.153 212.305 148.995 209.802 149.057C207.304 149.117 204.815 149.478 202.322 149.708C202.318 149.839 202.316 149.971 202.313 150.102C206.39 150.7 210.528 151.069 214.417 153.34ZM215.094 171.181C215.192 171.091 215.291 170.999 215.39 170.909C212.881 167.566 210.238 164.299 209.204 160.001C207.474 162.852 207.511 164.374 209.656 166.511C211.345 168.191 213.272 169.633 215.094 171.181ZM199.256 151.617C199.284 151.731 199.311 151.844 199.339 151.959C203.328 152.697 207.318 153.436 211.466 154.204C210.537 152.582 209.102 152.034 207.542 151.872C205.184 151.626 202.811 151.516 200.442 151.386C200.053 151.364 199.653 151.535 199.256 151.617ZM198.746 163.62C197.997 163.25 197.443 162.976 196.775 162.644C196.454 163.453 196.173 164.16 195.765 165.184C196.91 164.583 197.724 164.156 198.746 163.62ZM207.478 155.562C208.921 156.559 209.747 156.474 210.502 155.182C209.455 155.313 208.499 155.433 207.478 155.562ZM202.439 161.713C202.439 162.541 202.439 163.181 202.439 164.09C202.989 163.446 203.357 163.017 203.788 162.513C203.289 162.217 202.908 161.991 202.439 161.713Z" fill="white" fill-opacity="0.1"/>
<path d="M201.063 186.37C199.012 185.075 196.962 183.779 194.913 182.481C194.877 182.46 194.853 182.42 194.826 182.385C194.097 181.493 194.226 176.602 195.002 175.721C195.91 174.691 196.816 173.659 197.958 172.712C197.509 175.458 197.059 178.206 196.61 180.953C196.678 180.973 196.745 180.993 196.813 181.013C197.057 180.577 197.303 180.142 197.677 179.474C198.958 181.76 200.153 183.895 201.348 186.029C201.255 186.143 201.159 186.257 201.063 186.37Z" fill="white" fill-opacity="0.1"/>
<path d="M193.075 165.999C192.215 167.987 191.354 169.974 190.493 171.961C190.519 171.991 190.544 172.022 190.569 172.052C191.044 171.463 191.518 170.875 191.994 170.285C192.078 170.307 192.163 170.33 192.246 170.352C192.018 173.755 191.789 177.159 191.561 180.562C191.442 180.615 191.322 180.668 191.203 180.721C190.584 179.831 189.816 179.008 189.37 178.038C187.49 173.946 187.49 173.909 189.712 169.987C190.552 168.504 191.594 167.137 192.544 165.715C192.722 165.811 192.9 165.905 193.075 165.999Z" fill="white" fill-opacity="0.1"/>
<path d="M192.126 159.354C192.696 159.393 193.074 159.418 193.585 159.452C192.327 161.612 191.128 163.672 189.928 165.73C189.811 165.706 189.695 165.681 189.578 165.657C189.496 163.523 189.395 161.389 189.351 159.254C189.345 158.966 189.545 158.59 189.771 158.393C191.177 157.176 192.606 155.985 194.056 154.822C194.281 154.641 194.656 154.646 194.961 154.564C195.019 154.895 195.07 155.229 195.138 155.559C195.571 157.681 194.307 158.529 192.553 159.019C192.443 159.051 192.357 159.169 192.126 159.354Z" fill="white" fill-opacity="0.1"/>
<path d="M192.93 174.571C193.035 173.129 192.89 171.588 193.334 170.24C193.636 169.317 194.757 168.661 195.684 167.709C194.685 170.196 193.806 172.39 192.93 174.571Z" fill="white" fill-opacity="0.1"/>
<path d="M218.088 162.327C218.895 162.242 219.701 162.157 220.495 162.073C221.021 162.544 221.556 163.024 222.248 163.643C220.709 163.291 219.343 162.979 217.976 162.667C218.013 162.554 218.05 162.44 218.088 162.327Z" fill="white" fill-opacity="0.1"/>
<path d="M220.262 159.169C220.738 159.82 221.127 160.356 221.517 160.891C220.951 161.127 220.384 161.363 219.97 161.536C220.065 160.771 220.14 160.161 220.262 159.169Z" fill="white" fill-opacity="0.1"/>
<path d="M214.103 138.632C214.958 138.321 215.46 137.314 215.242 136.262C215.007 135.122 214.015 134.363 213.027 134.568C212.04 134.772 211.43 135.862 211.666 137.002C211.74 137.362 211.891 137.684 212.092 137.951L210.023 139.007L207.424 136.641C207.847 136.172 208.046 135.461 207.894 134.728C207.658 133.587 206.667 132.829 205.678 133.033C204.691 133.238 204.081 134.328 204.318 135.468C204.42 135.965 204.667 136.39 204.994 136.694L202.591 139.298L199.384 137.875C199.573 137.462 199.636 136.965 199.531 136.457C199.295 135.317 198.303 134.559 197.315 134.763C196.328 134.968 195.718 136.057 195.955 137.198C196.105 137.929 196.569 138.502 197.142 138.766L195.766 142.061L193.494 142.172C193.596 141.822 193.619 141.432 193.537 141.034C193.302 139.894 192.31 139.135 191.322 139.34C190.335 139.544 189.725 140.634 189.961 141.775C190.19 142.879 191.129 143.624 192.085 143.483L194.858 147.621C194.858 147.621 203.045 139.596 213.662 143.982L214.103 138.632ZM212.454 141.818C211.292 141.469 202.888 139.263 194.821 145.524L194.943 145.721L193.342 143.397L196.476 143.245L198.309 138.855C198.385 138.833 198.458 138.806 198.527 138.773L202.883 140.704L206.122 137.192C206.203 137.197 206.284 137.195 206.365 137.187L209.916 140.42L212.966 138.861L212.454 141.818Z" fill="white" fill-opacity="0.1"/>
<path d="M199.218 148.495C199.2 148.468 199.192 148.455 199.176 148.427C199.481 148.212 199.516 148.131 199.422 147.971C199.108 147.431 198.95 147.161 198.636 146.621C198.537 147.56 198.519 148.026 198.543 148.938C198.499 148.969 198.477 148.984 198.434 149.014C197.592 148.693 197.151 148.559 196.236 148.35C196.611 148.799 196.8 149.022 197.177 149.471C197.331 149.655 197.447 149.642 197.783 149.402C197.802 149.427 197.812 149.439 197.832 149.463C197.464 149.752 197.283 149.904 196.935 150.223C196.913 150.2 196.903 150.188 196.881 150.165C197.156 149.879 197.188 149.815 197.055 149.661C196.669 149.213 196.477 148.989 196.091 148.543C195.98 148.413 195.879 148.435 195.558 148.704C195.536 148.681 195.526 148.668 195.506 148.645C195.935 148.254 196.157 148.067 196.611 147.715C197.334 147.91 197.683 148.024 198.357 148.287C198.369 147.561 198.393 147.193 198.482 146.452C198.97 146.166 199.219 146.034 199.726 145.789C199.74 145.818 199.746 145.831 199.76 145.86C199.401 146.051 199.355 146.14 199.463 146.35C199.711 146.829 199.834 147.069 200.082 147.547C200.189 147.752 200.253 147.787 200.617 147.635C200.631 147.664 200.638 147.678 200.651 147.706C200.063 147.991 199.776 148.148 199.218 148.495Z" fill="white" fill-opacity="0.1"/>
<path d="M200.84 147.617C200.826 147.589 200.82 147.575 200.807 147.546C201.132 147.371 201.201 147.304 201.123 147.125C200.889 146.581 200.771 146.309 200.537 145.765C200.467 145.603 200.342 145.604 199.973 145.76C199.959 145.731 199.953 145.717 199.94 145.689C200.647 145.359 201.009 145.215 201.745 144.966C201.755 144.995 201.76 145.01 201.77 145.04C201.386 145.179 201.296 145.272 201.357 145.436C201.563 145.992 201.667 146.269 201.873 146.824C201.944 147.016 202.043 147.012 202.401 146.908C202.411 146.938 202.415 146.952 202.426 146.982C201.78 147.2 201.463 147.327 200.84 147.617Z" fill="white" fill-opacity="0.1"/>
<path d="M204.566 146.427C204.56 146.396 204.556 146.38 204.551 146.349C204.863 146.285 204.917 146.26 204.912 146.22C204.906 146.186 204.873 146.16 204.767 146.1C204.366 145.88 204.158 145.776 203.729 145.583C203.681 145.626 203.658 145.648 203.61 145.691C203.668 145.931 203.695 146.052 203.752 146.292C203.787 146.442 203.867 146.459 204.218 146.414C204.225 146.445 204.227 146.461 204.234 146.492C203.593 146.624 203.277 146.708 202.653 146.908C202.644 146.878 202.638 146.863 202.629 146.832C202.967 146.701 203.02 146.651 202.969 146.478C202.804 145.907 202.72 145.621 202.555 145.05C202.5 144.863 202.394 144.85 202.027 144.954C202.018 144.924 202.012 144.91 202.003 144.879C202.715 144.65 203.077 144.555 203.808 144.405C203.815 144.435 203.817 144.451 203.824 144.482C203.428 144.581 203.367 144.658 203.412 144.844C203.476 145.118 203.509 145.255 203.573 145.528C203.941 145.162 204.135 144.985 204.544 144.642C204.693 144.518 204.738 144.477 204.73 144.427C204.721 144.365 204.651 144.35 204.455 144.373C204.378 144.382 204.339 144.386 204.263 144.397C204.257 144.366 204.255 144.35 204.249 144.319C204.879 144.205 205.197 144.162 205.835 144.106C205.837 144.137 205.839 144.153 205.842 144.185C205.301 144.271 205.067 144.335 204.218 145.132C204.941 145.479 205.284 145.673 205.925 146.091C205.988 146.132 206.048 146.142 206.171 146.137C206.173 146.168 206.174 146.183 206.176 146.215C205.529 146.266 205.205 146.309 204.566 146.427Z" fill="white" fill-opacity="0.1"/>
<path d="M208.014 146.182C208.015 146.15 208.016 146.135 208.017 146.103C208.08 146.102 208.112 146.102 208.175 146.101C208.338 146.1 208.403 146.079 208.408 146.011C208.412 145.942 208.362 145.827 208.202 145.57C207.744 145.546 207.515 145.543 207.058 145.552C207.033 145.595 207.021 145.617 206.994 145.66C206.936 145.76 206.846 145.894 206.848 145.97C206.851 146.052 206.96 146.081 207.25 146.091C207.25 146.123 207.25 146.138 207.252 146.17C206.857 146.173 206.66 146.181 206.267 146.21C206.264 146.178 206.263 146.163 206.261 146.131C206.484 146.09 206.551 146.029 206.729 145.725C207.145 145.022 207.377 144.675 207.891 144.002C207.954 144.005 207.985 144.005 208.048 144.008C208.519 144.685 208.731 145.031 209.108 145.733C209.325 146.14 209.398 146.22 209.599 146.25C209.595 146.281 209.592 146.297 209.588 146.327C208.958 146.237 208.643 146.207 208.014 146.182ZM207.624 144.662C207.417 144.964 207.319 145.119 207.132 145.427C207.53 145.421 207.73 145.424 208.13 145.443C207.938 145.128 207.836 144.971 207.624 144.662Z" fill="white" fill-opacity="0.1"/>
<path d="M213.527 145.233C213.34 145.179 213.22 145.174 213.122 145.217C212.584 145.444 212.325 145.569 211.83 145.836C211.769 146.052 211.738 146.159 211.678 146.375C211.611 146.612 211.664 146.664 212.037 146.805C212.028 146.834 212.024 146.849 212.013 146.88C211.35 146.671 211.014 146.587 210.339 146.455C210.344 146.424 210.348 146.408 210.353 146.377C210.764 146.435 210.826 146.387 210.879 146.157C210.917 145.99 210.936 145.907 210.974 145.739C210.697 145.252 210.546 145.012 210.222 144.539C210.136 144.416 209.981 144.319 209.794 144.286C209.798 144.255 209.8 144.239 209.805 144.208C210.549 144.312 210.92 144.383 211.657 144.568C211.649 144.599 211.646 144.613 211.638 144.644C211.578 144.632 211.548 144.626 211.488 144.615C211.267 144.571 211.187 144.564 211.173 144.635C211.167 144.663 211.214 144.761 211.262 144.847C211.455 145.192 211.545 145.365 211.715 145.715C211.999 145.559 212.144 145.485 212.44 145.342C212.617 145.256 212.736 145.165 212.755 145.106C212.783 145.019 212.706 144.963 212.34 144.839C212.349 144.809 212.354 144.793 212.363 144.763C212.843 144.905 213.083 144.985 213.556 145.163C213.543 145.189 213.538 145.204 213.527 145.233Z" fill="white" fill-opacity="0.1"/>
</svg>
